<?xml version="1.0" encoding="utf-8"?>
<!-- Generator: Adobe Illustrator 16.0.0, SVG Export Plug-In . SVG Version: 6.00 Build 0)  -->
<!DOCTYPE svg PUBLIC "-//W3C//DTD SVG 1.1//EN" "http://www.w3.org/Graphics/SVG/1.1/DTD/svg11.dtd">
<svg version="1.1" id="Layer_1" xmlns="http://www.w3.org/2000/svg" xmlns:xlink="http://www.w3.org/1999/xlink" x="0px" y="0px"
	 width="443.371px" height="341.1px" viewBox="0 0 443.371 341.1" enable-background="new 0 0 443.371 341.1" xml:space="preserve">
<g>
	<g>
		<defs>
			<rect id="SVGID_1_" x="9.151" y="11.871" width="422.5" height="319"/>
		</defs>
		<clipPath id="SVGID_2_">
			<use xlink:href="#SVGID_1_"  overflow="visible"/>
		</clipPath>
		<rect x="11.151" y="13.871" clip-path="url(#SVGID_2_)" fill="#FFFFFF" width="72" height="27"/>
	</g>
	<g>
		<defs>
			<rect id="SVGID_3_" x="9.151" y="11.871" width="422.5" height="319"/>
		</defs>
		<clipPath id="SVGID_4_">
			<use xlink:href="#SVGID_3_"  overflow="visible"/>
		</clipPath>
		
			<rect x="11.651" y="14.371" clip-path="url(#SVGID_4_)" fill="none" stroke="#000000" stroke-linecap="round" stroke-linejoin="round" stroke-miterlimit="10" width="72" height="27"/>
	</g>
	<g>
		<defs>
			<rect id="SVGID_5_" x="9.151" y="11.871" width="422.5" height="319"/>
		</defs>
		<clipPath id="SVGID_6_">
			<use xlink:href="#SVGID_5_"  overflow="visible"/>
		</clipPath>
		<g clip-path="url(#SVGID_6_)">
			<path d="M39.904,22.764h1.316l3.124,8.606h-1.277l-0.898-2.578h-3.377l-0.934,2.578h-1.195L39.904,22.764z M41.838,27.844
				l-1.325-3.803l-1.377,3.803H41.838z"/>
			<path d="M45.232,22.705h2.25v0.861h-1.254v9.305h1.254v0.861h-2.25V22.705z"/>
			<path d="M53.418,24.322c0.375,0.691,0.562,1.639,0.562,2.842c0,1.142-0.17,2.084-0.51,2.83c-0.492,1.07-1.297,1.605-2.414,1.605
				c-1.008,0-1.758-0.438-2.25-1.312c-0.41-0.729-0.615-1.711-0.615-2.94c0-0.953,0.123-1.771,0.369-2.455
				c0.461-1.273,1.295-1.91,2.502-1.91C52.148,22.98,52.934,23.427,53.418,24.322z M52.356,29.912
				c0.325-0.484,0.487-1.387,0.487-2.707c0-0.953-0.118-1.737-0.352-2.353c-0.235-0.615-0.691-0.923-1.368-0.923
				c-0.622,0-1.077,0.292-1.364,0.876c-0.288,0.584-0.432,1.443-0.432,2.58c0,0.855,0.092,1.544,0.276,2.062
				c0.282,0.793,0.763,1.189,1.444,1.189C51.596,30.639,52.032,30.396,52.356,29.912z"/>
			<path d="M54.766,32.871h1.248v-9.305h-1.248v-0.861h2.25v11.027h-2.25V32.871z"/>
		</g>
	</g>
	<g>
		<defs>
			<rect id="SVGID_7_" x="9.151" y="11.871" width="422.5" height="319"/>
		</defs>
		<clipPath id="SVGID_8_">
			<use xlink:href="#SVGID_7_"  overflow="visible"/>
		</clipPath>
		<rect x="11.151" y="40.871" clip-path="url(#SVGID_8_)" fill="#FFFFFF" width="72" height="27"/>
	</g>
	<g>
		<defs>
			<rect id="SVGID_9_" x="9.151" y="11.871" width="422.5" height="319"/>
		</defs>
		<clipPath id="SVGID_10_">
			<use xlink:href="#SVGID_9_"  overflow="visible"/>
		</clipPath>
		
			<rect x="11.651" y="41.371" clip-path="url(#SVGID_10_)" fill="none" stroke="#000000" stroke-linecap="round" stroke-linejoin="round" stroke-miterlimit="10" width="72" height="27"/>
	</g>
	<g>
		<defs>
			<rect id="SVGID_11_" x="9.151" y="11.871" width="422.5" height="319"/>
		</defs>
		<clipPath id="SVGID_12_">
			<use xlink:href="#SVGID_11_"  overflow="visible"/>
		</clipPath>
		<g clip-path="url(#SVGID_12_)">
			<path d="M39.904,49.764h1.316l3.124,8.606h-1.277l-0.898-2.578h-3.377l-0.934,2.578h-1.195L39.904,49.764z M41.838,54.844
				l-1.325-3.803l-1.377,3.803H41.838z"/>
			<path d="M45.232,49.705h2.25v0.861h-1.254v9.305h1.254v0.861h-2.25V49.705z"/>
			<path d="M48.965,52.43v-0.81c0.762-0.074,1.293-0.198,1.594-0.372c0.301-0.174,0.525-0.585,0.674-1.232h0.832v8.354H50.94v-5.94
				H48.965z"/>
			<path d="M54.766,59.871h1.248v-9.305h-1.248v-0.861h2.25v11.027h-2.25V59.871z"/>
		</g>
	</g>
	<g>
		<defs>
			<rect id="SVGID_13_" x="9.151" y="11.871" width="422.5" height="319"/>
		</defs>
		<clipPath id="SVGID_14_">
			<use xlink:href="#SVGID_13_"  overflow="visible"/>
		</clipPath>
		<rect x="11.151" y="94.871" clip-path="url(#SVGID_14_)" fill="#FFFFFF" width="72" height="27"/>
	</g>
	<g>
		<defs>
			<rect id="SVGID_15_" x="9.151" y="11.871" width="422.5" height="319"/>
		</defs>
		<clipPath id="SVGID_16_">
			<use xlink:href="#SVGID_15_"  overflow="visible"/>
		</clipPath>
		
			<rect x="11.651" y="95.371" clip-path="url(#SVGID_16_)" fill="none" stroke="#000000" stroke-linecap="round" stroke-linejoin="round" stroke-miterlimit="10" width="72" height="27"/>
	</g>
	<g>
		<defs>
			<rect id="SVGID_17_" x="9.151" y="11.871" width="422.5" height="319"/>
		</defs>
		<clipPath id="SVGID_18_">
			<use xlink:href="#SVGID_17_"  overflow="visible"/>
		</clipPath>
		<g clip-path="url(#SVGID_18_)">
			<path d="M39.904,103.764h1.316l3.124,8.606h-1.277l-0.898-2.578h-3.377l-0.934,2.578h-1.195L39.904,103.764z M41.838,108.844
				l-1.325-3.803l-1.377,3.803H41.838z"/>
			<path d="M45.232,103.705h2.25v0.861h-1.254v9.305h1.254v0.861h-2.25V103.705z"/>
			<path d="M48.774,111.782c-0.447-0.545-0.671-1.208-0.671-1.989h1.102c0.047,0.543,0.148,0.938,0.305,1.185
				c0.273,0.44,0.768,0.662,1.482,0.662c0.555,0,1-0.148,1.336-0.445s0.504-0.68,0.504-1.148c0-0.578-0.177-0.981-0.53-1.213
				c-0.353-0.23-0.845-0.346-1.474-0.346c-0.07,0-0.142,0.001-0.214,0.003c-0.072,0.002-0.146,0.005-0.22,0.009v-0.932
				c0.109,0.012,0.201,0.02,0.275,0.022c0.074,0.003,0.154,0.007,0.24,0.007c0.395,0,0.719-0.062,0.973-0.188
				c0.445-0.219,0.668-0.609,0.668-1.172c0-0.418-0.148-0.74-0.445-0.967c-0.297-0.228-0.643-0.34-1.037-0.34
				c-0.703,0-1.189,0.233-1.459,0.702c-0.148,0.259-0.232,0.625-0.252,1.103h-1.043c0-0.625,0.125-1.156,0.375-1.594
				c0.43-0.781,1.186-1.173,2.268-1.173c0.855,0,1.518,0.19,1.986,0.571c0.468,0.381,0.703,0.934,0.703,1.655
				c0,0.516-0.139,0.934-0.416,1.254c-0.172,0.199-0.395,0.355-0.668,0.469c0.441,0.121,0.786,0.354,1.034,0.7
				s0.372,0.769,0.372,1.269c0,0.802-0.264,1.453-0.791,1.957c-0.527,0.505-1.275,0.757-2.244,0.757
				C49.941,112.6,49.222,112.327,48.774,111.782z"/>
			<path d="M54.766,113.871h1.248v-9.305h-1.248v-0.861h2.25v11.027h-2.25V113.871z"/>
		</g>
	</g>
	<g>
		<defs>
			<rect id="SVGID_19_" x="9.151" y="11.871" width="422.5" height="319"/>
		</defs>
		<clipPath id="SVGID_20_">
			<use xlink:href="#SVGID_19_"  overflow="visible"/>
		</clipPath>
		<rect x="11.151" y="67.871" clip-path="url(#SVGID_20_)" fill="#FFFFFF" width="72" height="27"/>
	</g>
	<g>
		<defs>
			<rect id="SVGID_21_" x="9.151" y="11.871" width="422.5" height="319"/>
		</defs>
		<clipPath id="SVGID_22_">
			<use xlink:href="#SVGID_21_"  overflow="visible"/>
		</clipPath>
		
			<rect x="11.651" y="68.371" clip-path="url(#SVGID_22_)" fill="none" stroke="#000000" stroke-linecap="round" stroke-linejoin="round" stroke-miterlimit="10" width="72" height="27"/>
	</g>
	<g>
		<defs>
			<rect id="SVGID_23_" x="9.151" y="11.871" width="422.5" height="319"/>
		</defs>
		<clipPath id="SVGID_24_">
			<use xlink:href="#SVGID_23_"  overflow="visible"/>
		</clipPath>
		<g clip-path="url(#SVGID_24_)">
			<path d="M39.904,76.764h1.316l3.124,8.606h-1.277l-0.898-2.578h-3.377l-0.934,2.578h-1.195L39.904,76.764z M41.838,81.844
				l-1.325-3.803l-1.377,3.803H41.838z"/>
			<path d="M45.232,76.705h2.25v0.861h-1.254v9.305h1.254v0.861h-2.25V76.705z"/>
			<path d="M48.64,83.484c0.26-0.535,0.767-1.021,1.521-1.459l1.125-0.65c0.504-0.293,0.857-0.543,1.061-0.751
				c0.32-0.324,0.48-0.695,0.48-1.115c0-0.488-0.146-0.878-0.439-1.165s-0.684-0.432-1.172-0.432c-0.723,0-1.223,0.274-1.5,0.822
				c-0.148,0.294-0.23,0.702-0.246,1.223h-1.072c0.012-0.729,0.146-1.326,0.404-1.787c0.457-0.812,1.264-1.219,2.42-1.219
				c0.961,0,1.663,0.26,2.106,0.779c0.443,0.519,0.665,1.098,0.665,1.733c0,0.672-0.236,1.246-0.709,1.724
				c-0.273,0.276-0.764,0.612-1.471,1.008L51.01,82.64c-0.383,0.211-0.684,0.411-0.902,0.604c-0.391,0.34-0.637,0.717-0.738,1.131
				h4.582v0.996h-5.76C48.23,84.648,48.38,84.02,48.64,83.484z"/>
			<path d="M54.766,86.871h1.248v-9.305h-1.248v-0.861h2.25v11.027h-2.25V86.871z"/>
		</g>
	</g>
	<g>
		<defs>
			<rect id="SVGID_25_" x="9.151" y="11.871" width="422.5" height="319"/>
		</defs>
		<clipPath id="SVGID_26_">
			<use xlink:href="#SVGID_25_"  overflow="visible"/>
		</clipPath>
		<rect x="11.151" y="121.871" clip-path="url(#SVGID_26_)" fill="#FFFFFF" width="72" height="27"/>
	</g>
	<g>
		<defs>
			<rect id="SVGID_27_" x="9.151" y="11.871" width="422.5" height="319"/>
		</defs>
		<clipPath id="SVGID_28_">
			<use xlink:href="#SVGID_27_"  overflow="visible"/>
		</clipPath>
		
			<rect x="11.651" y="122.371" clip-path="url(#SVGID_28_)" fill="none" stroke="#000000" stroke-linecap="round" stroke-linejoin="round" stroke-miterlimit="10" width="72" height="27"/>
	</g>
	<g>
		<defs>
			<rect id="SVGID_29_" x="9.151" y="11.871" width="422.5" height="319"/>
		</defs>
		<clipPath id="SVGID_30_">
			<use xlink:href="#SVGID_29_"  overflow="visible"/>
		</clipPath>
		<g clip-path="url(#SVGID_30_)">
			<path d="M39.904,130.764h1.316l3.124,8.606h-1.277l-0.898-2.578h-3.377l-0.934,2.578h-1.195L39.904,130.764z M41.838,135.844
				l-1.325-3.803l-1.377,3.803H41.838z"/>
			<path d="M45.232,130.705h2.25v0.861h-1.254v9.305h1.254v0.861h-2.25V130.705z"/>
			<path d="M51.801,139.371v-2.051h-3.68v-1.031l3.844-5.332h0.891v5.443h1.236v0.92h-1.236v2.051H51.801L51.801,139.371z
				 M51.783,136.4v-3.812l-2.689,3.812H51.783z"/>
			<path d="M54.766,140.871h1.248v-9.305h-1.248v-0.861h2.25v11.027h-2.25V140.871z"/>
		</g>
	</g>
	<g>
		<defs>
			<rect id="SVGID_31_" x="9.151" y="11.871" width="422.5" height="319"/>
		</defs>
		<clipPath id="SVGID_32_">
			<use xlink:href="#SVGID_31_"  overflow="visible"/>
		</clipPath>
		<rect x="11.151" y="148.871" clip-path="url(#SVGID_32_)" fill="#FFFFFF" width="72" height="27"/>
	</g>
	<g>
		<defs>
			<rect id="SVGID_33_" x="9.151" y="11.871" width="422.5" height="319"/>
		</defs>
		<clipPath id="SVGID_34_">
			<use xlink:href="#SVGID_33_"  overflow="visible"/>
		</clipPath>
		
			<rect x="11.651" y="149.371" clip-path="url(#SVGID_34_)" fill="none" stroke="#000000" stroke-linecap="round" stroke-linejoin="round" stroke-miterlimit="10" width="72" height="27"/>
	</g>
	<g>
		<defs>
			<rect id="SVGID_35_" x="9.151" y="11.871" width="422.5" height="319"/>
		</defs>
		<clipPath id="SVGID_36_">
			<use xlink:href="#SVGID_35_"  overflow="visible"/>
		</clipPath>
		<g clip-path="url(#SVGID_36_)">
			<path d="M39.904,157.764h1.316l3.124,8.606h-1.277l-0.898-2.578h-3.377l-0.934,2.578h-1.195L39.904,157.764z M41.838,162.844
				l-1.325-3.803l-1.377,3.803H41.838z"/>
			<path d="M45.232,157.705h2.25v0.861h-1.254v9.305h1.254v0.861h-2.25V157.705z"/>
			<path d="M49.299,164.232c0.07,0.602,0.35,1.018,0.838,1.248c0.25,0.117,0.539,0.176,0.867,0.176c0.625,0,1.088-0.199,1.389-0.598
				c0.301-0.399,0.451-0.841,0.451-1.324c0-0.586-0.179-1.039-0.536-1.359c-0.357-0.319-0.786-0.479-1.286-0.479
				c-0.363,0-0.675,0.069-0.935,0.211c-0.26,0.141-0.481,0.336-0.665,0.586l-0.914-0.053l0.639-4.519h4.359v1.021h-3.568
				l-0.357,2.332c0.195-0.148,0.381-0.261,0.557-0.334c0.312-0.13,0.674-0.193,1.084-0.193c0.77,0,1.422,0.248,1.957,0.744
				c0.535,0.496,0.803,1.125,0.803,1.887c0,0.793-0.245,1.492-0.735,2.098c-0.49,0.606-1.272,0.908-2.347,0.908
				c-0.684,0-1.288-0.191-1.813-0.577c-0.525-0.385-0.819-0.976-0.882-1.771h1.094V164.232z"/>
			<path d="M54.766,167.871h1.248v-9.305h-1.248v-0.861h2.25v11.027h-2.25V167.871z"/>
		</g>
	</g>
	<g>
		<defs>
			<rect id="SVGID_37_" x="9.151" y="11.871" width="422.5" height="319"/>
		</defs>
		<clipPath id="SVGID_38_">
			<use xlink:href="#SVGID_37_"  overflow="visible"/>
		</clipPath>
		<rect x="11.151" y="175.871" clip-path="url(#SVGID_38_)" fill="#FFFFFF" width="72" height="27"/>
	</g>
	<g>
		<defs>
			<rect id="SVGID_39_" x="9.151" y="11.871" width="422.5" height="319"/>
		</defs>
		<clipPath id="SVGID_40_">
			<use xlink:href="#SVGID_39_"  overflow="visible"/>
		</clipPath>
		
			<rect x="11.651" y="176.371" clip-path="url(#SVGID_40_)" fill="none" stroke="#000000" stroke-linecap="round" stroke-linejoin="round" stroke-miterlimit="10" width="72" height="27"/>
	</g>
	<g>
		<defs>
			<rect id="SVGID_41_" x="9.151" y="11.871" width="422.5" height="319"/>
		</defs>
		<clipPath id="SVGID_42_">
			<use xlink:href="#SVGID_41_"  overflow="visible"/>
		</clipPath>
		<g clip-path="url(#SVGID_42_)">
			<path d="M39.904,184.764h1.316l3.124,8.606h-1.277l-0.898-2.578h-3.377l-0.934,2.578h-1.195L39.904,184.764z M41.838,189.844
				l-1.325-3.803l-1.377,3.803H41.838z"/>
			<path d="M45.232,184.705h2.25v0.861h-1.254v9.305h1.254v0.861h-2.25V184.705z"/>
			<path d="M53.286,185.675c0.369,0.486,0.554,0.987,0.554,1.504h-1.043c-0.062-0.332-0.162-0.593-0.299-0.779
				c-0.254-0.353-0.639-0.527-1.154-0.527c-0.59,0-1.059,0.272-1.406,0.817s-0.541,1.325-0.58,2.341
				c0.242-0.355,0.547-0.621,0.914-0.797c0.336-0.156,0.711-0.234,1.125-0.234c0.703,0,1.316,0.226,1.84,0.674
				c0.524,0.449,0.785,1.119,0.785,2.011c0,0.762-0.248,1.437-0.744,2.023c-0.496,0.587-1.203,0.882-2.121,0.882
				c-0.785,0-1.463-0.298-2.033-0.894s-0.855-1.599-0.855-3.009c0-1.043,0.127-1.929,0.381-2.654
				c0.488-1.391,1.381-2.086,2.678-2.086C52.264,184.945,52.917,185.188,53.286,185.675z M52.495,192.091
				c0.275-0.373,0.413-0.812,0.413-1.32c0-0.431-0.123-0.839-0.369-1.229c-0.246-0.389-0.693-0.583-1.342-0.583
				c-0.453,0-0.851,0.15-1.192,0.451c-0.341,0.301-0.513,0.754-0.513,1.359c0,0.53,0.155,0.978,0.466,1.339s0.741,0.542,1.292,0.542
				C51.805,192.65,52.22,192.464,52.495,192.091z"/>
			<path d="M54.766,194.871h1.248v-9.305h-1.248v-0.861h2.25v11.027h-2.25V194.871z"/>
		</g>
	</g>
	<g>
		<defs>
			<rect id="SVGID_43_" x="9.151" y="11.871" width="422.5" height="319"/>
		</defs>
		<clipPath id="SVGID_44_">
			<use xlink:href="#SVGID_43_"  overflow="visible"/>
		</clipPath>
		<rect x="11.151" y="202.871" clip-path="url(#SVGID_44_)" fill="#FFFFFF" width="72" height="27"/>
	</g>
	<g>
		<defs>
			<rect id="SVGID_45_" x="9.151" y="11.871" width="422.5" height="319"/>
		</defs>
		<clipPath id="SVGID_46_">
			<use xlink:href="#SVGID_45_"  overflow="visible"/>
		</clipPath>
		
			<rect x="11.651" y="203.371" clip-path="url(#SVGID_46_)" fill="none" stroke="#000000" stroke-linecap="round" stroke-linejoin="round" stroke-miterlimit="10" width="72" height="27"/>
	</g>
	<g>
		<defs>
			<rect id="SVGID_47_" x="9.151" y="11.871" width="422.5" height="319"/>
		</defs>
		<clipPath id="SVGID_48_">
			<use xlink:href="#SVGID_47_"  overflow="visible"/>
		</clipPath>
		<g clip-path="url(#SVGID_48_)">
			<path d="M39.904,211.764h1.316l3.124,8.606h-1.277l-0.898-2.578h-3.377l-0.934,2.578h-1.195L39.904,211.764z M41.838,216.844
				l-1.325-3.803l-1.377,3.803H41.838z"/>
			<path d="M45.232,211.705h2.25v0.861h-1.254v9.305h1.254v0.861h-2.25V211.705z"/>
			<path d="M54.092,212.121v0.92c-0.27,0.262-0.628,0.717-1.075,1.365c-0.447,0.648-0.843,1.348-1.187,2.098
				c-0.34,0.73-0.598,1.396-0.773,1.998c-0.113,0.388-0.26,1.011-0.439,1.869h-1.166c0.266-1.602,0.852-3.195,1.758-4.781
				c0.535-0.93,1.098-1.731,1.688-2.407h-4.641v-1.062H54.092z"/>
			<path d="M54.766,221.871h1.248v-9.305h-1.248v-0.861h2.25v11.027h-2.25V221.871z"/>
		</g>
	</g>
	<g>
		<defs>
			<rect id="SVGID_49_" x="9.151" y="11.871" width="422.5" height="319"/>
		</defs>
		<clipPath id="SVGID_50_">
			<use xlink:href="#SVGID_49_"  overflow="visible"/>
		</clipPath>
		<path clip-path="url(#SVGID_50_)" fill="#FFFFFF" d="M145.251,13.871h37.8c4.471,0,8.1,6.048,8.1,13.5s-3.629,13.5-8.1,13.5h-37.8
			c-4.471,0-8.1-6.048-8.1-13.5S140.78,13.871,145.251,13.871"/>
	</g>
	<g>
		<defs>
			<rect id="SVGID_51_" x="9.151" y="11.871" width="422.5" height="319"/>
		</defs>
		<clipPath id="SVGID_52_">
			<use xlink:href="#SVGID_51_"  overflow="visible"/>
		</clipPath>
		
			<path clip-path="url(#SVGID_52_)" fill="none" stroke="#000000" stroke-linecap="round" stroke-linejoin="round" stroke-miterlimit="10" d="
			M145.251,14.371h37.8c4.471-0.5,8.1,5.548,8.1,13s-3.629,13.5-8.1,14h-37.8c-4.471-0.5-8.1-6.548-8.1-14s3.629-13.5,8.1-13.5"/>
	</g>
	<g>
		<defs>
			<rect id="SVGID_53_" x="9.151" y="11.871" width="422.5" height="319"/>
		</defs>
		<clipPath id="SVGID_54_">
			<use xlink:href="#SVGID_53_"  overflow="visible"/>
		</clipPath>
		<g clip-path="url(#SVGID_54_)">
			<path d="M153.364,22.764h1.67l2.475,7.276l2.458-7.276h1.659v8.606h-1.113v-5.08c0-0.176,0.004-0.467,0.012-0.873
				c0.008-0.405,0.012-0.842,0.012-1.307l-2.458,7.26h-1.155l-2.481-7.26v0.264c0,0.211,0.006,0.532,0.018,0.964
				c0.012,0.433,0.018,0.749,0.018,0.952v5.08h-1.113v-8.606H153.364z"/>
			<path d="M166.612,27.573c0.242-0.031,0.404-0.133,0.486-0.304c0.047-0.096,0.07-0.229,0.07-0.406c0-0.36-0.128-0.622-0.383-0.785
				c-0.255-0.163-0.621-0.244-1.097-0.244c-0.55,0-0.939,0.149-1.169,0.447c-0.129,0.165-0.212,0.41-0.251,0.736h-0.984
				c0.02-0.775,0.27-1.315,0.752-1.619c0.482-0.305,1.041-0.455,1.677-0.455c0.737,0,1.336,0.141,1.797,0.422
				c0.457,0.281,0.685,0.719,0.685,1.312v3.615c0,0.109,0.022,0.197,0.067,0.265c0.045,0.066,0.14,0.1,0.284,0.1
				c0.047,0,0.1-0.003,0.158-0.009s0.121-0.016,0.188-0.026V31.4c-0.164,0.047-0.289,0.076-0.375,0.088s-0.203,0.018-0.352,0.018
				c-0.363,0-0.627-0.129-0.791-0.387c-0.086-0.137-0.146-0.33-0.182-0.58c-0.215,0.281-0.523,0.525-0.926,0.732
				c-0.403,0.207-0.846,0.311-1.33,0.311c-0.582,0-1.058-0.177-1.427-0.529c-0.369-0.354-0.554-0.795-0.554-1.325
				c0-0.581,0.182-1.031,0.545-1.353c0.363-0.318,0.84-0.517,1.43-0.591L166.612,27.573z M164.392,30.423
				c0.223,0.176,0.486,0.264,0.791,0.264c0.371,0,0.73-0.086,1.078-0.259c0.586-0.283,0.879-0.75,0.879-1.396v-0.849
				c-0.129,0.082-0.294,0.15-0.497,0.206c-0.203,0.055-0.401,0.094-0.597,0.116l-0.637,0.082c-0.382,0.052-0.669,0.131-0.862,0.239
				c-0.326,0.184-0.489,0.476-0.489,0.877C164.058,30.008,164.169,30.247,164.392,30.423z"/>
			<path d="M169.835,25.125h1.031v0.832c0.211-0.285,0.442-0.506,0.693-0.662c0.356-0.233,0.775-0.352,1.257-0.352
				c0.713,0,1.318,0.271,1.815,0.816c0.497,0.546,0.746,1.323,0.746,2.335c0,1.367-0.359,2.345-1.077,2.931
				c-0.455,0.371-0.984,0.557-1.588,0.557c-0.475,0-0.873-0.104-1.194-0.311c-0.188-0.117-0.398-0.318-0.629-0.604v3.205h-1.055
				L169.835,25.125L169.835,25.125z M173.803,30.044c0.327-0.412,0.491-1.027,0.491-1.849c0-0.5-0.072-0.93-0.218-1.289
				c-0.274-0.691-0.776-1.037-1.505-1.037c-0.733,0-1.235,0.365-1.505,1.096c-0.146,0.392-0.218,0.888-0.218,1.488
				c0,0.484,0.072,0.896,0.218,1.236c0.274,0.647,0.776,0.973,1.505,0.973C173.065,30.662,173.476,30.456,173.803,30.044z"/>
		</g>
	</g>
	<g>
		<defs>
			<rect id="SVGID_55_" x="9.151" y="11.871" width="422.5" height="319"/>
		</defs>
		<clipPath id="SVGID_56_">
			<use xlink:href="#SVGID_55_"  overflow="visible"/>
		</clipPath>
		<path clip-path="url(#SVGID_56_)" fill="#FFFFFF" d="M145.251,40.871h37.8c4.471,0,8.1,6.048,8.1,13.5s-3.629,13.5-8.1,13.5h-37.8
			c-4.471,0-8.1-6.048-8.1-13.5S140.78,40.871,145.251,40.871"/>
	</g>
	<g>
		<defs>
			<rect id="SVGID_57_" x="9.151" y="11.871" width="422.5" height="319"/>
		</defs>
		<clipPath id="SVGID_58_">
			<use xlink:href="#SVGID_57_"  overflow="visible"/>
		</clipPath>
		
			<path clip-path="url(#SVGID_58_)" fill="none" stroke="#000000" stroke-linecap="round" stroke-linejoin="round" stroke-miterlimit="10" d="
			M145.251,41.371h37.8c4.471-0.5,8.1,5.548,8.1,13s-3.629,13.5-8.1,14h-37.8c-4.471-0.5-8.1-6.548-8.1-14s3.629-13.5,8.1-13.5"/>
	</g>
	<g>
		<defs>
			<rect id="SVGID_59_" x="9.151" y="11.871" width="422.5" height="319"/>
		</defs>
		<clipPath id="SVGID_60_">
			<use xlink:href="#SVGID_59_"  overflow="visible"/>
		</clipPath>
		<g clip-path="url(#SVGID_60_)">
			<path d="M153.364,49.764h1.67l2.475,7.276l2.458-7.276h1.659v8.606h-1.113v-5.08c0-0.176,0.004-0.467,0.012-0.873
				c0.008-0.405,0.012-0.842,0.012-1.307l-2.458,7.26h-1.155l-2.481-7.26v0.264c0,0.211,0.006,0.532,0.018,0.964
				c0.012,0.433,0.018,0.749,0.018,0.952v5.08h-1.113v-8.606H153.364z"/>
			<path d="M166.612,54.573c0.242-0.031,0.404-0.133,0.486-0.304c0.047-0.096,0.07-0.229,0.07-0.406c0-0.36-0.128-0.622-0.383-0.785
				c-0.255-0.163-0.621-0.244-1.097-0.244c-0.55,0-0.939,0.149-1.169,0.447c-0.129,0.165-0.212,0.41-0.251,0.736h-0.984
				c0.02-0.775,0.27-1.315,0.752-1.619c0.482-0.305,1.041-0.455,1.677-0.455c0.737,0,1.336,0.141,1.797,0.422
				c0.457,0.281,0.685,0.719,0.685,1.312v3.615c0,0.109,0.022,0.197,0.067,0.265c0.045,0.066,0.14,0.1,0.284,0.1
				c0.047,0,0.1-0.003,0.158-0.009s0.121-0.016,0.188-0.026V58.4c-0.164,0.047-0.289,0.076-0.375,0.088s-0.203,0.018-0.352,0.018
				c-0.363,0-0.627-0.129-0.791-0.387c-0.086-0.137-0.146-0.33-0.182-0.58c-0.215,0.281-0.523,0.525-0.926,0.732
				c-0.403,0.207-0.846,0.311-1.33,0.311c-0.582,0-1.058-0.177-1.427-0.529c-0.369-0.354-0.554-0.795-0.554-1.325
				c0-0.581,0.182-1.031,0.545-1.353c0.363-0.318,0.84-0.517,1.43-0.591L166.612,54.573z M164.392,57.423
				c0.223,0.176,0.486,0.264,0.791,0.264c0.371,0,0.73-0.086,1.078-0.259c0.586-0.283,0.879-0.75,0.879-1.396v-0.849
				c-0.129,0.082-0.294,0.15-0.497,0.206c-0.203,0.055-0.401,0.094-0.597,0.116l-0.637,0.082c-0.382,0.052-0.669,0.131-0.862,0.239
				c-0.326,0.184-0.489,0.476-0.489,0.877C164.058,57.008,164.169,57.247,164.392,57.423z"/>
			<path d="M169.835,52.125h1.031v0.832c0.211-0.285,0.442-0.506,0.693-0.662c0.356-0.233,0.775-0.352,1.257-0.352
				c0.713,0,1.318,0.271,1.815,0.816c0.497,0.546,0.746,1.323,0.746,2.335c0,1.367-0.359,2.345-1.077,2.931
				c-0.455,0.371-0.984,0.557-1.588,0.557c-0.475,0-0.873-0.104-1.194-0.311c-0.188-0.117-0.398-0.318-0.629-0.604v3.205h-1.055
				L169.835,52.125L169.835,52.125z M173.803,57.044c0.327-0.412,0.491-1.027,0.491-1.849c0-0.5-0.072-0.93-0.218-1.289
				c-0.274-0.691-0.776-1.037-1.505-1.037c-0.733,0-1.235,0.365-1.505,1.096c-0.146,0.392-0.218,0.888-0.218,1.488
				c0,0.484,0.072,0.896,0.218,1.236c0.274,0.647,0.776,0.973,1.505,0.973C173.065,57.662,173.476,57.456,173.803,57.044z"/>
		</g>
	</g>
	<g>
		<defs>
			<rect id="SVGID_61_" x="9.151" y="11.871" width="422.5" height="319"/>
		</defs>
		<clipPath id="SVGID_62_">
			<use xlink:href="#SVGID_61_"  overflow="visible"/>
		</clipPath>
		<path clip-path="url(#SVGID_62_)" fill="#FFFFFF" d="M145.251,67.871h37.8c4.471,0,8.1,6.048,8.1,13.5s-3.629,13.5-8.1,13.5h-37.8
			c-4.471,0-8.1-6.048-8.1-13.5S140.78,67.871,145.251,67.871"/>
	</g>
	<g>
		<defs>
			<rect id="SVGID_63_" x="9.151" y="11.871" width="422.5" height="319"/>
		</defs>
		<clipPath id="SVGID_64_">
			<use xlink:href="#SVGID_63_"  overflow="visible"/>
		</clipPath>
		
			<path clip-path="url(#SVGID_64_)" fill="none" stroke="#000000" stroke-linecap="round" stroke-linejoin="round" stroke-miterlimit="10" d="
			M145.251,68.371h37.8c4.471-0.5,8.1,5.548,8.1,13s-3.629,13.5-8.1,14h-37.8c-4.471-0.5-8.1-6.548-8.1-14s3.629-13.5,8.1-13.5"/>
	</g>
	<g>
		<defs>
			<rect id="SVGID_65_" x="9.151" y="11.871" width="422.5" height="319"/>
		</defs>
		<clipPath id="SVGID_66_">
			<use xlink:href="#SVGID_65_"  overflow="visible"/>
		</clipPath>
		<g clip-path="url(#SVGID_66_)">
			<path d="M153.364,76.764h1.67l2.475,7.276l2.458-7.276h1.659v8.606h-1.113v-5.08c0-0.176,0.004-0.467,0.012-0.873
				c0.008-0.405,0.012-0.842,0.012-1.307l-2.458,7.26h-1.155l-2.481-7.26v0.264c0,0.211,0.006,0.532,0.018,0.964
				c0.012,0.433,0.018,0.749,0.018,0.952v5.08h-1.113v-8.606H153.364z"/>
			<path d="M166.612,81.573c0.242-0.031,0.404-0.133,0.486-0.304c0.047-0.096,0.07-0.229,0.07-0.406c0-0.36-0.128-0.622-0.383-0.785
				c-0.255-0.163-0.621-0.244-1.097-0.244c-0.55,0-0.939,0.149-1.169,0.447c-0.129,0.165-0.212,0.41-0.251,0.736h-0.984
				c0.02-0.775,0.27-1.315,0.752-1.619c0.482-0.305,1.041-0.455,1.677-0.455c0.737,0,1.336,0.141,1.797,0.422
				c0.457,0.281,0.685,0.719,0.685,1.312v3.615c0,0.109,0.022,0.197,0.067,0.265c0.045,0.066,0.14,0.1,0.284,0.1
				c0.047,0,0.1-0.003,0.158-0.009s0.121-0.016,0.188-0.026V85.4c-0.164,0.047-0.289,0.076-0.375,0.088s-0.203,0.018-0.352,0.018
				c-0.363,0-0.627-0.129-0.791-0.387c-0.086-0.137-0.146-0.33-0.182-0.58c-0.215,0.281-0.523,0.525-0.926,0.732
				c-0.403,0.207-0.846,0.311-1.33,0.311c-0.582,0-1.058-0.177-1.427-0.529c-0.369-0.354-0.554-0.795-0.554-1.325
				c0-0.581,0.182-1.031,0.545-1.353c0.363-0.318,0.84-0.517,1.43-0.591L166.612,81.573z M164.392,84.423
				c0.223,0.176,0.486,0.264,0.791,0.264c0.371,0,0.73-0.086,1.078-0.259c0.586-0.283,0.879-0.75,0.879-1.396v-0.849
				c-0.129,0.082-0.294,0.15-0.497,0.206c-0.203,0.055-0.401,0.094-0.597,0.116l-0.637,0.082c-0.382,0.052-0.669,0.131-0.862,0.239
				c-0.326,0.184-0.489,0.476-0.489,0.877C164.058,84.008,164.169,84.247,164.392,84.423z"/>
			<path d="M169.835,79.125h1.031v0.832c0.211-0.285,0.442-0.506,0.693-0.662c0.356-0.233,0.775-0.352,1.257-0.352
				c0.713,0,1.318,0.271,1.815,0.816c0.497,0.546,0.746,1.323,0.746,2.336c0,1.366-0.359,2.344-1.077,2.93
				c-0.455,0.371-0.984,0.557-1.588,0.557c-0.475,0-0.873-0.104-1.194-0.311c-0.188-0.117-0.398-0.318-0.629-0.604v3.205h-1.055
				L169.835,79.125L169.835,79.125z M173.803,84.044c0.327-0.412,0.491-1.027,0.491-1.849c0-0.5-0.072-0.93-0.218-1.289
				c-0.274-0.691-0.776-1.037-1.505-1.037c-0.733,0-1.235,0.365-1.505,1.096c-0.146,0.392-0.218,0.888-0.218,1.488
				c0,0.484,0.072,0.896,0.218,1.236c0.274,0.647,0.776,0.973,1.505,0.973C173.065,84.662,173.476,84.456,173.803,84.044z"/>
		</g>
	</g>
	<g>
		<defs>
			<rect id="SVGID_67_" x="9.151" y="11.871" width="422.5" height="319"/>
		</defs>
		<clipPath id="SVGID_68_">
			<use xlink:href="#SVGID_67_"  overflow="visible"/>
		</clipPath>
		<path clip-path="url(#SVGID_68_)" fill="#FFFFFF" d="M145.251,94.871h37.8c4.471,0,8.1,6.048,8.1,13.5s-3.629,13.5-8.1,13.5h-37.8
			c-4.471,0-8.1-6.048-8.1-13.5S140.78,94.871,145.251,94.871"/>
	</g>
	<g>
		<defs>
			<rect id="SVGID_69_" x="9.151" y="11.871" width="422.5" height="319"/>
		</defs>
		<clipPath id="SVGID_70_">
			<use xlink:href="#SVGID_69_"  overflow="visible"/>
		</clipPath>
		
			<path clip-path="url(#SVGID_70_)" fill="none" stroke="#000000" stroke-linecap="round" stroke-linejoin="round" stroke-miterlimit="10" d="
			M145.251,95.371h37.8c4.471-0.5,8.1,5.548,8.1,13s-3.629,13.5-8.1,14h-37.8c-4.471-0.5-8.1-6.548-8.1-14s3.629-13.5,8.1-13.5"/>
	</g>
	<g>
		<defs>
			<rect id="SVGID_71_" x="9.151" y="11.871" width="422.5" height="319"/>
		</defs>
		<clipPath id="SVGID_72_">
			<use xlink:href="#SVGID_71_"  overflow="visible"/>
		</clipPath>
		<g clip-path="url(#SVGID_72_)">
			<path d="M153.364,103.764h1.67l2.475,7.276l2.458-7.276h1.659v8.606h-1.113v-5.08c0-0.176,0.004-0.467,0.012-0.873
				c0.008-0.405,0.012-0.842,0.012-1.307l-2.458,7.26h-1.155l-2.481-7.26v0.264c0,0.211,0.006,0.532,0.018,0.964
				c0.012,0.433,0.018,0.749,0.018,0.952v5.08h-1.113v-8.606H153.364z"/>
			<path d="M166.612,108.573c0.242-0.031,0.404-0.133,0.486-0.304c0.047-0.096,0.07-0.229,0.07-0.406
				c0-0.36-0.128-0.622-0.383-0.785c-0.255-0.163-0.621-0.244-1.097-0.244c-0.55,0-0.939,0.149-1.169,0.447
				c-0.129,0.165-0.212,0.41-0.251,0.736h-0.984c0.02-0.775,0.27-1.315,0.752-1.619c0.482-0.305,1.041-0.455,1.677-0.455
				c0.737,0,1.336,0.141,1.797,0.422c0.457,0.281,0.685,0.719,0.685,1.312v3.615c0,0.109,0.022,0.197,0.067,0.265
				c0.045,0.066,0.14,0.1,0.284,0.1c0.047,0,0.1-0.003,0.158-0.009s0.121-0.016,0.188-0.026v0.779
				c-0.164,0.047-0.289,0.076-0.375,0.088s-0.203,0.018-0.352,0.018c-0.363,0-0.627-0.129-0.791-0.387
				c-0.086-0.137-0.146-0.33-0.182-0.58c-0.215,0.281-0.523,0.525-0.926,0.732c-0.403,0.207-0.846,0.311-1.33,0.311
				c-0.582,0-1.058-0.177-1.427-0.529c-0.369-0.354-0.554-0.795-0.554-1.325c0-0.581,0.182-1.031,0.545-1.353
				c0.363-0.318,0.84-0.517,1.43-0.591L166.612,108.573z M164.392,111.423c0.223,0.176,0.486,0.264,0.791,0.264
				c0.371,0,0.73-0.086,1.078-0.259c0.586-0.283,0.879-0.75,0.879-1.396v-0.849c-0.129,0.082-0.294,0.15-0.497,0.206
				c-0.203,0.055-0.401,0.094-0.597,0.116l-0.637,0.082c-0.382,0.052-0.669,0.131-0.862,0.239c-0.326,0.184-0.489,0.476-0.489,0.877
				C164.058,111.008,164.169,111.247,164.392,111.423z"/>
			<path d="M169.835,106.125h1.031v0.832c0.211-0.285,0.442-0.506,0.693-0.662c0.356-0.233,0.775-0.352,1.257-0.352
				c0.713,0,1.318,0.271,1.815,0.816c0.497,0.546,0.746,1.323,0.746,2.336c0,1.366-0.359,2.344-1.077,2.93
				c-0.455,0.371-0.984,0.557-1.588,0.557c-0.475,0-0.873-0.104-1.194-0.311c-0.188-0.117-0.398-0.318-0.629-0.604v3.205h-1.055
				L169.835,106.125L169.835,106.125z M173.803,111.044c0.327-0.412,0.491-1.027,0.491-1.849c0-0.5-0.072-0.93-0.218-1.289
				c-0.274-0.691-0.776-1.037-1.505-1.037c-0.733,0-1.235,0.365-1.505,1.096c-0.146,0.392-0.218,0.888-0.218,1.488
				c0,0.484,0.072,0.896,0.218,1.236c0.274,0.647,0.776,0.973,1.505,0.973C173.065,111.662,173.476,111.456,173.803,111.044z"/>
		</g>
	</g>
	<g>
		<defs>
			<rect id="SVGID_73_" x="9.151" y="11.871" width="422.5" height="319"/>
		</defs>
		<clipPath id="SVGID_74_">
			<use xlink:href="#SVGID_73_"  overflow="visible"/>
		</clipPath>
		<path clip-path="url(#SVGID_74_)" fill="#FFFFFF" d="M145.251,121.871h37.8c4.471,0,8.1,6.048,8.1,13.5s-3.629,13.5-8.1,13.5
			h-37.8c-4.471,0-8.1-6.048-8.1-13.5S140.78,121.871,145.251,121.871"/>
	</g>
	<g>
		<defs>
			<rect id="SVGID_75_" x="9.151" y="11.871" width="422.5" height="319"/>
		</defs>
		<clipPath id="SVGID_76_">
			<use xlink:href="#SVGID_75_"  overflow="visible"/>
		</clipPath>
		
			<path clip-path="url(#SVGID_76_)" fill="none" stroke="#000000" stroke-linecap="round" stroke-linejoin="round" stroke-miterlimit="10" d="
			M145.251,122.371h37.8c4.471-0.5,8.1,5.548,8.1,13s-3.629,13.5-8.1,14h-37.8c-4.471-0.5-8.1-6.548-8.1-14s3.629-13.5,8.1-13.5"/>
	</g>
	<g>
		<defs>
			<rect id="SVGID_77_" x="9.151" y="11.871" width="422.5" height="319"/>
		</defs>
		<clipPath id="SVGID_78_">
			<use xlink:href="#SVGID_77_"  overflow="visible"/>
		</clipPath>
		<g clip-path="url(#SVGID_78_)">
			<path d="M153.364,130.764h1.67l2.475,7.276l2.458-7.276h1.659v8.606h-1.113v-5.08c0-0.176,0.004-0.467,0.012-0.873
				c0.008-0.405,0.012-0.842,0.012-1.307l-2.458,7.26h-1.155l-2.481-7.26v0.264c0,0.211,0.006,0.532,0.018,0.964
				c0.012,0.433,0.018,0.749,0.018,0.952v5.08h-1.113v-8.606H153.364z"/>
			<path d="M166.612,135.573c0.242-0.031,0.404-0.133,0.486-0.304c0.047-0.096,0.07-0.229,0.07-0.406
				c0-0.36-0.128-0.622-0.383-0.785c-0.255-0.163-0.621-0.244-1.097-0.244c-0.55,0-0.939,0.149-1.169,0.447
				c-0.129,0.165-0.212,0.41-0.251,0.736h-0.984c0.02-0.775,0.27-1.315,0.752-1.619c0.482-0.305,1.041-0.455,1.677-0.455
				c0.737,0,1.336,0.141,1.797,0.422c0.457,0.281,0.685,0.719,0.685,1.312v3.615c0,0.109,0.022,0.197,0.067,0.265
				c0.045,0.066,0.14,0.1,0.284,0.1c0.047,0,0.1-0.003,0.158-0.009s0.121-0.016,0.188-0.026v0.779
				c-0.164,0.047-0.289,0.076-0.375,0.088s-0.203,0.018-0.352,0.018c-0.363,0-0.627-0.129-0.791-0.387
				c-0.086-0.137-0.146-0.33-0.182-0.58c-0.215,0.281-0.523,0.525-0.926,0.732c-0.403,0.207-0.846,0.311-1.33,0.311
				c-0.582,0-1.058-0.177-1.427-0.529c-0.369-0.354-0.554-0.795-0.554-1.325c0-0.581,0.182-1.031,0.545-1.353
				c0.363-0.318,0.84-0.517,1.43-0.591L166.612,135.573z M164.392,138.423c0.223,0.176,0.486,0.264,0.791,0.264
				c0.371,0,0.73-0.086,1.078-0.258c0.586-0.284,0.879-0.75,0.879-1.397v-0.849c-0.129,0.082-0.294,0.15-0.497,0.206
				c-0.203,0.055-0.401,0.094-0.597,0.116l-0.637,0.082c-0.382,0.052-0.669,0.131-0.862,0.239c-0.326,0.184-0.489,0.476-0.489,0.877
				C164.058,138.008,164.169,138.247,164.392,138.423z"/>
			<path d="M169.835,133.125h1.031v0.832c0.211-0.285,0.442-0.506,0.693-0.662c0.356-0.233,0.775-0.352,1.257-0.352
				c0.713,0,1.318,0.271,1.815,0.816c0.497,0.546,0.746,1.323,0.746,2.336c0,1.366-0.359,2.344-1.077,2.93
				c-0.455,0.371-0.984,0.557-1.588,0.557c-0.475,0-0.873-0.104-1.194-0.311c-0.188-0.117-0.398-0.318-0.629-0.604v3.205h-1.055
				L169.835,133.125L169.835,133.125z M173.803,138.044c0.327-0.412,0.491-1.027,0.491-1.849c0-0.5-0.072-0.93-0.218-1.289
				c-0.274-0.691-0.776-1.037-1.505-1.037c-0.733,0-1.235,0.365-1.505,1.096c-0.146,0.392-0.218,0.888-0.218,1.488
				c0,0.484,0.072,0.896,0.218,1.236c0.274,0.647,0.776,0.973,1.505,0.973C173.065,138.662,173.476,138.456,173.803,138.044z"/>
		</g>
	</g>
	<g>
		<defs>
			<rect id="SVGID_79_" x="9.151" y="11.871" width="422.5" height="319"/>
		</defs>
		<clipPath id="SVGID_80_">
			<use xlink:href="#SVGID_79_"  overflow="visible"/>
		</clipPath>
		<path clip-path="url(#SVGID_80_)" fill="#FFFFFF" d="M145.251,148.871h37.8c4.471,0,8.1,6.048,8.1,13.5s-3.629,13.5-8.1,13.5
			h-37.8c-4.471,0-8.1-6.048-8.1-13.5S140.78,148.871,145.251,148.871"/>
	</g>
	<g>
		<defs>
			<rect id="SVGID_81_" x="9.151" y="11.871" width="422.5" height="319"/>
		</defs>
		<clipPath id="SVGID_82_">
			<use xlink:href="#SVGID_81_"  overflow="visible"/>
		</clipPath>
		
			<path clip-path="url(#SVGID_82_)" fill="none" stroke="#000000" stroke-linecap="round" stroke-linejoin="round" stroke-miterlimit="10" d="
			M145.251,149.371h37.8c4.471-0.5,8.1,5.548,8.1,13s-3.629,13.5-8.1,14h-37.8c-4.471-0.5-8.1-6.548-8.1-14s3.629-13.5,8.1-13.5"/>
	</g>
	<g>
		<defs>
			<rect id="SVGID_83_" x="9.151" y="11.871" width="422.5" height="319"/>
		</defs>
		<clipPath id="SVGID_84_">
			<use xlink:href="#SVGID_83_"  overflow="visible"/>
		</clipPath>
		<g clip-path="url(#SVGID_84_)">
			<path d="M153.364,157.764h1.67l2.475,7.276l2.458-7.276h1.659v8.606h-1.113v-5.08c0-0.176,0.004-0.467,0.012-0.873
				c0.008-0.405,0.012-0.842,0.012-1.307l-2.458,7.26h-1.155l-2.481-7.26v0.264c0,0.211,0.006,0.532,0.018,0.964
				c0.012,0.433,0.018,0.749,0.018,0.952v5.08h-1.113v-8.606H153.364z"/>
			<path d="M166.612,162.573c0.242-0.031,0.404-0.133,0.486-0.304c0.047-0.096,0.07-0.229,0.07-0.406
				c0-0.36-0.128-0.622-0.383-0.785c-0.255-0.163-0.621-0.244-1.097-0.244c-0.55,0-0.939,0.149-1.169,0.447
				c-0.129,0.165-0.212,0.41-0.251,0.736h-0.984c0.02-0.775,0.27-1.315,0.752-1.619c0.482-0.305,1.041-0.455,1.677-0.455
				c0.737,0,1.336,0.141,1.797,0.422c0.457,0.281,0.685,0.719,0.685,1.312v3.615c0,0.109,0.022,0.197,0.067,0.265
				c0.045,0.066,0.14,0.1,0.284,0.1c0.047,0,0.1-0.003,0.158-0.009s0.121-0.016,0.188-0.026v0.779
				c-0.164,0.047-0.289,0.076-0.375,0.088s-0.203,0.018-0.352,0.018c-0.363,0-0.627-0.129-0.791-0.387
				c-0.086-0.137-0.146-0.33-0.182-0.58c-0.215,0.281-0.523,0.525-0.926,0.732c-0.403,0.207-0.846,0.311-1.33,0.311
				c-0.582,0-1.058-0.177-1.427-0.529c-0.369-0.354-0.554-0.795-0.554-1.325c0-0.581,0.182-1.031,0.545-1.353
				c0.363-0.318,0.84-0.517,1.43-0.591L166.612,162.573z M164.392,165.423c0.223,0.176,0.486,0.264,0.791,0.264
				c0.371,0,0.73-0.086,1.078-0.258c0.586-0.284,0.879-0.75,0.879-1.397v-0.849c-0.129,0.082-0.294,0.15-0.497,0.206
				c-0.203,0.055-0.401,0.094-0.597,0.116l-0.637,0.082c-0.382,0.052-0.669,0.131-0.862,0.239c-0.326,0.184-0.489,0.476-0.489,0.877
				C164.058,165.008,164.169,165.247,164.392,165.423z"/>
			<path d="M169.835,160.125h1.031v0.832c0.211-0.285,0.442-0.506,0.693-0.662c0.356-0.233,0.775-0.352,1.257-0.352
				c0.713,0,1.318,0.271,1.815,0.816c0.497,0.546,0.746,1.323,0.746,2.336c0,1.366-0.359,2.344-1.077,2.93
				c-0.455,0.371-0.984,0.557-1.588,0.557c-0.475,0-0.873-0.104-1.194-0.311c-0.188-0.117-0.398-0.318-0.629-0.604v3.205h-1.055
				L169.835,160.125L169.835,160.125z M173.803,165.044c0.327-0.412,0.491-1.027,0.491-1.849c0-0.5-0.072-0.93-0.218-1.289
				c-0.274-0.691-0.776-1.037-1.505-1.037c-0.733,0-1.235,0.365-1.505,1.096c-0.146,0.392-0.218,0.888-0.218,1.488
				c0,0.484,0.072,0.896,0.218,1.236c0.274,0.647,0.776,0.973,1.505,0.973C173.065,165.662,173.476,165.456,173.803,165.044z"/>
		</g>
	</g>
	<g>
		<defs>
			<rect id="SVGID_85_" x="9.151" y="11.871" width="422.5" height="319"/>
		</defs>
		<clipPath id="SVGID_86_">
			<use xlink:href="#SVGID_85_"  overflow="visible"/>
		</clipPath>
		<path clip-path="url(#SVGID_86_)" fill="#FFFFFF" d="M145.251,175.871h37.8c4.471,0,8.1,6.048,8.1,13.5s-3.629,13.5-8.1,13.5
			h-37.8c-4.471,0-8.1-6.048-8.1-13.5S140.78,175.871,145.251,175.871"/>
	</g>
	<g>
		<defs>
			<rect id="SVGID_87_" x="9.151" y="11.871" width="422.5" height="319"/>
		</defs>
		<clipPath id="SVGID_88_">
			<use xlink:href="#SVGID_87_"  overflow="visible"/>
		</clipPath>
		
			<path clip-path="url(#SVGID_88_)" fill="none" stroke="#000000" stroke-linecap="round" stroke-linejoin="round" stroke-miterlimit="10" d="
			M145.251,176.371h37.8c4.471-0.5,8.1,5.548,8.1,13s-3.629,13.5-8.1,14h-37.8c-4.471-0.5-8.1-6.548-8.1-14s3.629-13.5,8.1-13.5"/>
	</g>
	<g>
		<defs>
			<rect id="SVGID_89_" x="9.151" y="11.871" width="422.5" height="319"/>
		</defs>
		<clipPath id="SVGID_90_">
			<use xlink:href="#SVGID_89_"  overflow="visible"/>
		</clipPath>
		<g clip-path="url(#SVGID_90_)">
			<path d="M153.364,184.764h1.67l2.475,7.276l2.458-7.276h1.659v8.606h-1.113v-5.08c0-0.176,0.004-0.467,0.012-0.873
				c0.008-0.405,0.012-0.842,0.012-1.307l-2.458,7.26h-1.155l-2.481-7.26v0.264c0,0.211,0.006,0.532,0.018,0.964
				c0.012,0.433,0.018,0.749,0.018,0.952v5.08h-1.113v-8.606H153.364z"/>
			<path d="M166.612,189.573c0.242-0.031,0.404-0.133,0.486-0.304c0.047-0.096,0.07-0.229,0.07-0.406
				c0-0.36-0.128-0.622-0.383-0.785c-0.255-0.163-0.621-0.244-1.097-0.244c-0.55,0-0.939,0.149-1.169,0.447
				c-0.129,0.165-0.212,0.41-0.251,0.736h-0.984c0.02-0.775,0.27-1.315,0.752-1.619c0.482-0.305,1.041-0.455,1.677-0.455
				c0.737,0,1.336,0.141,1.797,0.422c0.457,0.281,0.685,0.719,0.685,1.312v3.615c0,0.109,0.022,0.197,0.067,0.265
				c0.045,0.066,0.14,0.1,0.284,0.1c0.047,0,0.1-0.003,0.158-0.009s0.121-0.016,0.188-0.026v0.779
				c-0.164,0.047-0.289,0.076-0.375,0.088s-0.203,0.018-0.352,0.018c-0.363,0-0.627-0.129-0.791-0.387
				c-0.086-0.137-0.146-0.33-0.182-0.58c-0.215,0.281-0.523,0.525-0.926,0.732c-0.403,0.207-0.846,0.311-1.33,0.311
				c-0.582,0-1.058-0.177-1.427-0.529c-0.369-0.354-0.554-0.795-0.554-1.325c0-0.581,0.182-1.031,0.545-1.353
				c0.363-0.318,0.84-0.517,1.43-0.591L166.612,189.573z M164.392,192.423c0.223,0.176,0.486,0.264,0.791,0.264
				c0.371,0,0.73-0.086,1.078-0.258c0.586-0.284,0.879-0.75,0.879-1.397v-0.849c-0.129,0.082-0.294,0.15-0.497,0.206
				c-0.203,0.055-0.401,0.094-0.597,0.116l-0.637,0.082c-0.382,0.052-0.669,0.131-0.862,0.239c-0.326,0.184-0.489,0.476-0.489,0.877
				C164.058,192.008,164.169,192.247,164.392,192.423z"/>
			<path d="M169.835,187.125h1.031v0.832c0.211-0.285,0.442-0.506,0.693-0.662c0.356-0.233,0.775-0.352,1.257-0.352
				c0.713,0,1.318,0.271,1.815,0.816c0.497,0.546,0.746,1.323,0.746,2.336c0,1.366-0.359,2.344-1.077,2.93
				c-0.455,0.371-0.984,0.557-1.588,0.557c-0.475,0-0.873-0.104-1.194-0.311c-0.188-0.117-0.398-0.318-0.629-0.604v3.205h-1.055
				L169.835,187.125L169.835,187.125z M173.803,192.044c0.327-0.412,0.491-1.027,0.491-1.849c0-0.5-0.072-0.93-0.218-1.289
				c-0.274-0.691-0.776-1.037-1.505-1.037c-0.733,0-1.235,0.365-1.505,1.096c-0.146,0.392-0.218,0.888-0.218,1.488
				c0,0.484,0.072,0.896,0.218,1.236c0.274,0.647,0.776,0.973,1.505,0.973C173.065,192.662,173.476,192.456,173.803,192.044z"/>
		</g>
	</g>
	<g>
		<defs>
			<rect id="SVGID_91_" x="9.151" y="11.871" width="422.5" height="319"/>
		</defs>
		<clipPath id="SVGID_92_">
			<use xlink:href="#SVGID_91_"  overflow="visible"/>
		</clipPath>
		<path clip-path="url(#SVGID_92_)" fill="#FFFFFF" d="M145.251,202.871h37.8c4.471,0,8.1,6.048,8.1,13.5s-3.629,13.5-8.1,13.5
			h-37.8c-4.471,0-8.1-6.048-8.1-13.5S140.78,202.871,145.251,202.871"/>
	</g>
	<g>
		<defs>
			<rect id="SVGID_93_" x="9.151" y="11.871" width="422.5" height="319"/>
		</defs>
		<clipPath id="SVGID_94_">
			<use xlink:href="#SVGID_93_"  overflow="visible"/>
		</clipPath>
		
			<path clip-path="url(#SVGID_94_)" fill="none" stroke="#000000" stroke-linecap="round" stroke-linejoin="round" stroke-miterlimit="10" d="
			M145.251,203.371h37.8c4.471-0.5,8.1,5.548,8.1,13s-3.629,13.5-8.1,14h-37.8c-4.471-0.5-8.1-6.548-8.1-14s3.629-13.5,8.1-13.5"/>
	</g>
	<g>
		<defs>
			<rect id="SVGID_95_" x="9.151" y="11.871" width="422.5" height="319"/>
		</defs>
		<clipPath id="SVGID_96_">
			<use xlink:href="#SVGID_95_"  overflow="visible"/>
		</clipPath>
		<g clip-path="url(#SVGID_96_)">
			<path d="M153.364,211.764h1.67l2.475,7.276l2.458-7.276h1.659v8.606h-1.113v-5.08c0-0.176,0.004-0.467,0.012-0.873
				c0.008-0.405,0.012-0.842,0.012-1.307l-2.458,7.26h-1.155l-2.481-7.26v0.264c0,0.211,0.006,0.532,0.018,0.964
				c0.012,0.433,0.018,0.749,0.018,0.952v5.08h-1.113v-8.606H153.364z"/>
			<path d="M166.612,216.573c0.242-0.031,0.404-0.133,0.486-0.304c0.047-0.096,0.07-0.229,0.07-0.406
				c0-0.36-0.128-0.622-0.383-0.785c-0.255-0.163-0.621-0.244-1.097-0.244c-0.55,0-0.939,0.149-1.169,0.447
				c-0.129,0.165-0.212,0.41-0.251,0.736h-0.984c0.02-0.775,0.27-1.315,0.752-1.619c0.482-0.305,1.041-0.455,1.677-0.455
				c0.737,0,1.336,0.141,1.797,0.422c0.457,0.281,0.685,0.719,0.685,1.312v3.615c0,0.109,0.022,0.197,0.067,0.265
				c0.045,0.066,0.14,0.1,0.284,0.1c0.047,0,0.1-0.003,0.158-0.009s0.121-0.016,0.188-0.026v0.779
				c-0.164,0.047-0.289,0.076-0.375,0.088s-0.203,0.018-0.352,0.018c-0.363,0-0.627-0.129-0.791-0.387
				c-0.086-0.137-0.146-0.33-0.182-0.58c-0.215,0.281-0.523,0.525-0.926,0.732c-0.403,0.207-0.846,0.311-1.33,0.311
				c-0.582,0-1.058-0.177-1.427-0.529c-0.369-0.354-0.554-0.795-0.554-1.325c0-0.581,0.182-1.031,0.545-1.353
				c0.363-0.318,0.84-0.517,1.43-0.591L166.612,216.573z M164.392,219.423c0.223,0.176,0.486,0.264,0.791,0.264
				c0.371,0,0.73-0.086,1.078-0.258c0.586-0.284,0.879-0.75,0.879-1.397v-0.849c-0.129,0.082-0.294,0.15-0.497,0.206
				c-0.203,0.055-0.401,0.094-0.597,0.116l-0.637,0.082c-0.382,0.052-0.669,0.131-0.862,0.239c-0.326,0.184-0.489,0.476-0.489,0.877
				C164.058,219.008,164.169,219.247,164.392,219.423z"/>
			<path d="M169.835,214.125h1.031v0.832c0.211-0.285,0.442-0.506,0.693-0.662c0.356-0.233,0.775-0.352,1.257-0.352
				c0.713,0,1.318,0.271,1.815,0.816c0.497,0.546,0.746,1.323,0.746,2.336c0,1.366-0.359,2.344-1.077,2.93
				c-0.455,0.371-0.984,0.557-1.588,0.557c-0.475,0-0.873-0.104-1.194-0.311c-0.188-0.117-0.398-0.318-0.629-0.604v3.205h-1.055
				L169.835,214.125L169.835,214.125z M173.803,219.044c0.327-0.412,0.491-1.027,0.491-1.849c0-0.5-0.072-0.93-0.218-1.289
				c-0.274-0.691-0.776-1.037-1.505-1.037c-0.733,0-1.235,0.365-1.505,1.096c-0.146,0.392-0.218,0.888-0.218,1.488
				c0,0.484,0.072,0.896,0.218,1.236c0.274,0.647,0.776,0.973,1.505,0.973C173.065,219.662,173.476,219.456,173.803,219.044z"/>
		</g>
	</g>
	<g>
		<defs>
			<rect id="SVGID_97_" x="9.151" y="11.871" width="422.5" height="319"/>
		</defs>
		<clipPath id="SVGID_98_">
			<use xlink:href="#SVGID_97_"  overflow="visible"/>
		</clipPath>
		<rect x="11.151" y="247.871" clip-path="url(#SVGID_98_)" fill="#FFFFFF" width="72" height="36"/>
	</g>
	<g>
		<defs>
			<rect id="SVGID_99_" x="9.151" y="11.871" width="422.5" height="319"/>
		</defs>
		<clipPath id="SVGID_100_">
			<use xlink:href="#SVGID_99_"  overflow="visible"/>
		</clipPath>
		
			<rect x="11.651" y="248.371" clip-path="url(#SVGID_100_)" fill="none" stroke="#000000" stroke-linecap="round" stroke-linejoin="round" stroke-miterlimit="10" width="72" height="36"/>
	</g>
	<g>
		<defs>
			<rect id="SVGID_101_" x="9.151" y="11.871" width="422.5" height="319"/>
		</defs>
		<clipPath id="SVGID_102_">
			<use xlink:href="#SVGID_101_"  overflow="visible"/>
		</clipPath>
		<g clip-path="url(#SVGID_102_)">
			<path d="M32.458,254.234h2.597v8.637h-1.682v-5.842c0-0.168,0.002-0.403,0.006-0.706s0.006-0.536,0.006-0.7l-1.637,7.248h-1.754
				l-1.625-7.248c0,0.164,0.002,0.397,0.006,0.7s0.006,0.538,0.006,0.706v5.842h-1.682v-8.637h2.626l1.572,6.791L32.458,254.234z"/>
			<path d="M39.12,258.986c0.311-0.039,0.533-0.088,0.667-0.146c0.24-0.102,0.36-0.26,0.36-0.475c0-0.262-0.092-0.442-0.276-0.542
				s-0.454-0.149-0.811-0.149c-0.4,0-0.683,0.099-0.849,0.293c-0.119,0.146-0.198,0.341-0.238,0.587h-1.611
				c0.035-0.56,0.192-1.019,0.471-1.378c0.443-0.562,1.205-0.844,2.283-0.844c0.702,0,1.326,0.14,1.872,0.416
				c0.546,0.277,0.818,0.801,0.818,1.57v2.93c0,0.203,0.004,0.449,0.012,0.738c0.012,0.219,0.045,0.367,0.1,0.445
				c0.055,0.077,0.137,0.143,0.246,0.192v0.246h-1.816c-0.051-0.129-0.086-0.25-0.105-0.363c-0.019-0.112-0.035-0.241-0.047-0.387
				c-0.232,0.25-0.499,0.463-0.802,0.639c-0.361,0.207-0.77,0.312-1.226,0.312c-0.582,0-1.062-0.165-1.441-0.495
				s-0.569-0.798-0.569-1.403c0-0.784,0.305-1.354,0.915-1.705c0.334-0.19,0.826-0.327,1.476-0.409L39.12,258.986z M40.141,259.766
				c-0.107,0.065-0.215,0.119-0.324,0.16s-0.258,0.079-0.449,0.114l-0.38,0.07c-0.356,0.062-0.612,0.139-0.768,0.229
				c-0.263,0.152-0.395,0.39-0.395,0.709c0,0.285,0.08,0.491,0.241,0.618c0.16,0.127,0.355,0.19,0.586,0.19
				c0.365,0,0.701-0.105,1.008-0.316c0.307-0.211,0.467-0.596,0.479-1.153v-0.621H40.141z"/>
			<path d="M48.635,257.17c0.521,0.552,0.781,1.359,0.781,2.427c0,1.125-0.254,1.981-0.764,2.571
				c-0.51,0.59-1.165,0.886-1.967,0.886c-0.511,0-0.936-0.128-1.274-0.382c-0.185-0.141-0.366-0.346-0.542-0.614v3.327h-1.652
				v-8.899h1.6v0.943c0.181-0.277,0.374-0.496,0.578-0.656c0.373-0.285,0.817-0.429,1.333-0.429
				C47.478,256.344,48.114,256.619,48.635,257.17z M47.353,258.371c-0.227-0.379-0.595-0.567-1.104-0.567
				c-0.612,0-1.032,0.286-1.261,0.86c-0.119,0.305-0.178,0.691-0.178,1.16c0,0.742,0.199,1.264,0.597,1.564
				c0.237,0.176,0.517,0.264,0.841,0.264c0.47,0,0.828-0.18,1.075-0.539c0.247-0.359,0.37-0.838,0.37-1.437
				C47.693,259.186,47.58,258.75,47.353,258.371z"/>
			<path d="M55.965,257.17c0.521,0.552,0.781,1.359,0.781,2.427c0,1.125-0.254,1.981-0.764,2.571
				c-0.51,0.59-1.165,0.886-1.967,0.886c-0.511,0-0.936-0.128-1.274-0.382c-0.185-0.141-0.366-0.346-0.542-0.614v3.327h-1.652
				v-8.899h1.6v0.943c0.181-0.277,0.374-0.496,0.578-0.656c0.373-0.285,0.817-0.429,1.333-0.429
				C54.808,256.344,55.444,256.619,55.965,257.17z M54.683,258.371c-0.227-0.379-0.595-0.567-1.104-0.567
				c-0.612,0-1.032,0.286-1.261,0.86c-0.119,0.305-0.178,0.691-0.178,1.16c0,0.742,0.199,1.264,0.597,1.564
				c0.237,0.176,0.517,0.264,0.841,0.264c0.47,0,0.828-0.18,1.075-0.539s0.37-0.838,0.37-1.437
				C55.023,259.186,54.91,258.75,54.683,258.371z"/>
			<path d="M62.085,256.613c0.446,0.2,0.813,0.515,1.104,0.945c0.261,0.38,0.431,0.818,0.509,1.319
				c0.045,0.293,0.063,0.717,0.055,1.269h-4.651c0.026,0.641,0.249,1.09,0.668,1.348c0.255,0.16,0.562,0.24,0.921,0.24
				c0.38,0,0.689-0.098,0.927-0.293c0.13-0.105,0.245-0.252,0.344-0.439h1.705c-0.045,0.379-0.251,0.765-0.619,1.154
				c-0.572,0.621-1.373,0.932-2.403,0.932c-0.85,0-1.6-0.262-2.25-0.786c-0.65-0.522-0.975-1.376-0.975-2.557
				c0-1.105,0.293-1.955,0.88-2.545c0.586-0.591,1.348-0.886,2.284-0.886C61.14,256.314,61.64,256.414,62.085,256.613z
				 M59.587,258.057c-0.236,0.242-0.384,0.571-0.445,0.987h2.877c-0.03-0.442-0.179-0.778-0.445-1.009
				c-0.266-0.229-0.596-0.345-0.99-0.345C60.156,257.691,59.823,257.813,59.587,258.057z"/>
			<path d="M68.146,256.335c0.021,0.002,0.069,0.005,0.144,0.009v1.712c-0.105-0.013-0.199-0.021-0.281-0.023
				s-0.148-0.006-0.199-0.006c-0.672,0-1.123,0.219-1.354,0.656c-0.129,0.245-0.193,0.625-0.193,1.137v3.053H64.58v-6.387h1.594
				v1.113c0.258-0.427,0.482-0.718,0.674-0.873c0.312-0.263,0.719-0.394,1.219-0.394C68.098,256.332,68.124,256.333,68.146,256.335z
				"/>
		</g>
	</g>
	<g>
		<defs>
			<rect id="SVGID_103_" x="9.151" y="11.871" width="422.5" height="319"/>
		</defs>
		<clipPath id="SVGID_104_">
			<use xlink:href="#SVGID_103_"  overflow="visible"/>
		</clipPath>
		<g clip-path="url(#SVGID_104_)">
			<path d="M32.56,268.264h1.316L37,276.871h-1.277l-0.898-2.578h-3.377l-0.934,2.578h-1.195L32.56,268.264z M34.493,273.344
				l-1.325-3.803l-1.377,3.803H34.493z"/>
			<path d="M46.474,272.055v0.983h-6.111v-0.983H46.474z M46.474,274.568v1.002h-6.111v-1.002H46.474z"/>
			<path d="M53.746,274.308l-6.75,2.675v-1.06l5.514-2.116l-5.514-2.111v-1.059l6.75,2.681V274.308z"/>
			<path d="M58.058,268.264h3.722c1.014,0,1.736,0.301,2.165,0.901c0.251,0.355,0.377,0.767,0.377,1.23
				c0,0.543-0.154,0.987-0.463,1.336c-0.16,0.184-0.391,0.352-0.691,0.504c0.441,0.168,0.771,0.356,0.99,0.568
				c0.387,0.375,0.58,0.893,0.58,1.553c0,0.555-0.175,1.057-0.525,1.506c-0.522,0.672-1.354,1.008-2.494,1.008h-3.661V268.264z
				 M61.344,271.902c0.497,0,0.884-0.068,1.16-0.205c0.434-0.215,0.651-0.602,0.651-1.16c0-0.562-0.231-0.94-0.693-1.137
				c-0.26-0.109-0.647-0.164-1.16-0.164H59.2v2.666H61.344z M61.738,275.875c0.722,0,1.236-0.207,1.543-0.621
				c0.193-0.262,0.29-0.578,0.29-0.948c0-0.625-0.282-1.052-0.846-1.277c-0.3-0.121-0.696-0.182-1.189-0.182H59.2v3.028H61.738
				L61.738,275.875z"/>
		</g>
	</g>
	<g>
		<defs>
			<rect id="SVGID_105_" x="9.151" y="11.871" width="422.5" height="319"/>
		</defs>
		<clipPath id="SVGID_106_">
			<use xlink:href="#SVGID_105_"  overflow="visible"/>
		</clipPath>
		<rect x="11.151" y="292.871" clip-path="url(#SVGID_106_)" fill="#FFFFFF" width="72" height="36"/>
	</g>
	<g>
		<defs>
			<rect id="SVGID_107_" x="9.151" y="11.871" width="422.5" height="319"/>
		</defs>
		<clipPath id="SVGID_108_">
			<use xlink:href="#SVGID_107_"  overflow="visible"/>
		</clipPath>
		
			<rect x="11.651" y="293.371" clip-path="url(#SVGID_108_)" fill="none" stroke="#000000" stroke-linecap="round" stroke-linejoin="round" stroke-miterlimit="10" width="72" height="36"/>
	</g>
	<g>
		<defs>
			<rect id="SVGID_109_" x="9.151" y="11.871" width="422.5" height="319"/>
		</defs>
		<clipPath id="SVGID_110_">
			<use xlink:href="#SVGID_109_"  overflow="visible"/>
		</clipPath>
		<g clip-path="url(#SVGID_110_)">
			<path d="M29.591,299.457c0.318,0.137,0.587,0.338,0.809,0.604c0.183,0.219,0.328,0.461,0.434,0.727
				c0.107,0.267,0.16,0.568,0.16,0.908c0,0.41-0.104,0.812-0.311,1.21c-0.207,0.396-0.549,0.677-1.025,0.841
				c0.398,0.16,0.681,0.388,0.847,0.684c0.166,0.295,0.249,0.744,0.249,1.351v0.58c0,0.395,0.016,0.662,0.048,0.803
				c0.047,0.224,0.158,0.387,0.333,0.492v0.217h-1.992c-0.055-0.19-0.094-0.346-0.117-0.463c-0.047-0.242-0.072-0.49-0.076-0.744
				l-0.012-0.803c-0.007-0.551-0.103-0.918-0.286-1.102c-0.183-0.185-0.525-0.275-1.028-0.275h-1.763v3.387h-1.764v-8.637h4.131
				C28.819,299.246,29.273,299.32,29.591,299.457z M25.861,300.734v2.32h1.942c0.386,0,0.675-0.048,0.868-0.142
				c0.341-0.164,0.512-0.488,0.512-0.973c0-0.523-0.165-0.875-0.495-1.055c-0.186-0.103-0.464-0.152-0.835-0.152L25.861,300.734
				L25.861,300.734z"/>
			<path d="M36.75,301.613c0.446,0.2,0.813,0.515,1.104,0.945c0.261,0.38,0.431,0.818,0.509,1.319
				c0.045,0.293,0.063,0.717,0.055,1.269h-4.651c0.026,0.641,0.249,1.09,0.668,1.348c0.255,0.16,0.562,0.24,0.921,0.24
				c0.38,0,0.689-0.098,0.927-0.293c0.13-0.105,0.245-0.252,0.344-0.439h1.705c-0.045,0.379-0.251,0.765-0.619,1.154
				c-0.572,0.621-1.373,0.932-2.403,0.932c-0.85,0-1.6-0.262-2.25-0.786c-0.65-0.522-0.975-1.376-0.975-2.557
				c0-1.105,0.293-1.955,0.88-2.545c0.586-0.591,1.348-0.886,2.284-0.886C35.804,301.314,36.304,301.414,36.75,301.613z
				 M34.251,303.057c-0.236,0.242-0.384,0.571-0.445,0.987h2.877c-0.03-0.442-0.179-0.778-0.445-1.009
				c-0.266-0.229-0.596-0.345-0.99-0.345C34.82,302.691,34.487,302.813,34.251,303.057z"/>
			<path d="M42.648,301.587c0.301,0.17,0.545,0.405,0.732,0.706v-3.047h1.693v8.625H43.45v-0.885
				c-0.238,0.379-0.51,0.654-0.814,0.826c-0.304,0.172-0.684,0.258-1.137,0.258c-0.746,0-1.374-0.302-1.884-0.905
				c-0.51-0.603-0.765-1.378-0.765-2.323c0-1.09,0.251-1.946,0.753-2.571s1.173-0.938,2.013-0.938
				C42.004,301.332,42.348,301.417,42.648,301.587z M43.059,306.137c0.246-0.353,0.369-0.808,0.369-1.365
				c0-0.781-0.197-1.34-0.592-1.676c-0.242-0.203-0.523-0.306-0.844-0.306c-0.488,0-0.847,0.186-1.075,0.555
				c-0.228,0.368-0.343,0.826-0.343,1.373c0,0.591,0.116,1.062,0.349,1.415c0.233,0.354,0.585,0.53,1.058,0.53
				S42.812,306.488,43.059,306.137z"/>
			<path d="M48.256,301.484v3.85c0,0.363,0.043,0.638,0.128,0.82c0.151,0.324,0.449,0.486,0.892,0.486
				c0.567,0,0.956-0.23,1.166-0.691c0.108-0.25,0.163-0.58,0.163-0.99v-3.475h1.693v6.387h-1.623v-0.902
				c-0.016,0.021-0.055,0.078-0.117,0.177c-0.062,0.098-0.136,0.184-0.222,0.258c-0.261,0.234-0.513,0.395-0.757,0.479
				c-0.243,0.086-0.529,0.13-0.856,0.13c-0.942,0-1.578-0.341-1.905-1.021c-0.183-0.375-0.274-0.928-0.274-1.658v-3.85H48.256z"/>
			<path d="M57.742,303.775c-0.031-0.238-0.112-0.453-0.241-0.646c-0.188-0.258-0.48-0.387-0.875-0.387
				c-0.564,0-0.95,0.279-1.157,0.838c-0.11,0.296-0.165,0.689-0.165,1.182c0,0.468,0.055,0.844,0.165,1.128
				c0.2,0.53,0.576,0.797,1.127,0.797c0.392,0,0.67-0.105,0.834-0.316c0.165-0.211,0.265-0.483,0.3-0.82h1.705
				c-0.039,0.509-0.223,0.988-0.551,1.441c-0.524,0.73-1.3,1.096-2.329,1.096c-1.029,0-1.785-0.305-2.27-0.914
				c-0.485-0.608-0.728-1.398-0.728-2.369c0-1.097,0.268-1.948,0.804-2.559c0.536-0.608,1.274-0.914,2.217-0.914
				c0.802,0,1.458,0.181,1.968,0.539c0.51,0.359,0.812,0.994,0.906,1.904H57.742z"/>
			<path d="M64.757,301.613c0.446,0.2,0.813,0.515,1.104,0.945c0.261,0.38,0.431,0.818,0.509,1.319
				c0.045,0.293,0.063,0.717,0.055,1.269h-4.651c0.026,0.641,0.249,1.09,0.668,1.348c0.255,0.16,0.562,0.24,0.921,0.24
				c0.38,0,0.689-0.098,0.927-0.293c0.13-0.105,0.245-0.252,0.344-0.439h1.705c-0.045,0.379-0.251,0.765-0.619,1.154
				c-0.572,0.621-1.373,0.932-2.403,0.932c-0.85,0-1.6-0.262-2.25-0.786c-0.65-0.522-0.975-1.376-0.975-2.557
				c0-1.105,0.293-1.955,0.88-2.545c0.586-0.591,1.348-0.886,2.284-0.886C63.812,301.314,64.312,301.414,64.757,301.613z
				 M62.259,303.057c-0.236,0.242-0.384,0.571-0.445,0.987h2.877c-0.03-0.442-0.179-0.778-0.445-1.009
				c-0.266-0.229-0.596-0.345-0.99-0.345C62.828,302.691,62.495,302.813,62.259,303.057z"/>
			<path d="M70.817,301.335c0.021,0.002,0.069,0.005,0.144,0.009v1.712c-0.105-0.013-0.199-0.021-0.281-0.023
				s-0.148-0.006-0.199-0.006c-0.672,0-1.123,0.219-1.354,0.656c-0.129,0.245-0.193,0.625-0.193,1.137v3.053h-1.682v-6.387h1.594
				v1.113c0.258-0.427,0.482-0.718,0.674-0.873c0.312-0.263,0.719-0.394,1.219-0.394C70.77,301.332,70.796,301.333,70.817,301.335z"
				/>
		</g>
	</g>
	<g>
		<defs>
			<rect id="SVGID_111_" x="9.151" y="11.871" width="422.5" height="319"/>
		</defs>
		<clipPath id="SVGID_112_">
			<use xlink:href="#SVGID_111_"  overflow="visible"/>
		</clipPath>
		<g clip-path="url(#SVGID_112_)">
			<path d="M35.69,313.264h3.722c1.014,0,1.736,0.301,2.165,0.901c0.251,0.355,0.377,0.767,0.377,1.23
				c0,0.543-0.154,0.987-0.463,1.336c-0.16,0.184-0.391,0.352-0.691,0.504c0.441,0.168,0.771,0.356,0.99,0.568
				c0.387,0.375,0.58,0.893,0.58,1.553c0,0.555-0.175,1.057-0.525,1.506c-0.522,0.672-1.354,1.008-2.494,1.008H35.69V313.264z
				 M38.977,316.902c0.497,0,0.884-0.068,1.16-0.205c0.434-0.215,0.651-0.602,0.651-1.16c0-0.562-0.231-0.94-0.693-1.137
				c-0.26-0.109-0.647-0.164-1.16-0.164h-2.102v2.666H38.977z M39.371,320.875c0.722,0,1.236-0.207,1.543-0.621
				c0.193-0.262,0.29-0.578,0.29-0.948c0-0.625-0.282-1.052-0.846-1.277c-0.3-0.121-0.696-0.182-1.189-0.182h-2.336v3.028H39.371
				L39.371,320.875z"/>
			<path d="M22.69,313.264h3.722c1.014,0,1.736,0.301,2.165,0.901c0.251,0.355,0.377,0.767,0.377,1.23
				c0,0.543-0.154,0.987-0.463,1.336c-0.16,0.184-0.391,0.352-0.691,0.504c0.441,0.168,0.771,0.356,0.99,0.568
				c0.387,0.375,0.58,0.893,0.58,1.553c0,0.555-0.175,1.057-0.525,1.506c-0.522,0.672-1.354,1.008-2.494,1.008H22.69V313.264z
				 M25.977,316.902c0.497,0,0.884-0.068,1.16-0.205c0.434-0.215,0.651-0.602,0.651-1.16c0-0.562-0.231-0.94-0.693-1.137
				c-0.26-0.109-0.647-0.164-1.16-0.164h-2.102v2.666H25.977z M26.371,320.875c0.722,0,1.236-0.207,1.543-0.621
				c0.193-0.262,0.29-0.578,0.29-0.948c0-0.625-0.282-1.052-0.846-1.277c-0.3-0.121-0.696-0.182-1.189-0.182h-2.336v3.028H26.371
				L26.371,320.875z"/>
			<path d="M52.794,317.055v0.983h-6.111v-0.983H52.794z M52.794,319.568v1.002h-6.111v-1.002H52.794z"/>
			<path d="M60.065,319.308l-6.75,2.675v-1.06l5.514-2.116l-5.514-2.111v-1.059l6.75,2.681V319.308z"/>
			<path d="M64.378,313.264H68.1c1.014,0,1.736,0.301,2.165,0.901c0.251,0.355,0.377,0.767,0.377,1.23
				c0,0.543-0.154,0.987-0.463,1.336c-0.16,0.184-0.391,0.352-0.691,0.504c0.441,0.168,0.771,0.356,0.99,0.568
				c0.387,0.375,0.58,0.893,0.58,1.553c0,0.555-0.175,1.057-0.525,1.506c-0.522,0.672-1.354,1.008-2.494,1.008h-3.661V313.264z
				 M67.664,316.902c0.497,0,0.884-0.068,1.16-0.205c0.434-0.215,0.651-0.602,0.651-1.16c0-0.562-0.231-0.94-0.693-1.137
				c-0.26-0.109-0.647-0.164-1.16-0.164H65.52v2.666H67.664z M68.058,320.875c0.722,0,1.236-0.207,1.543-0.621
				c0.193-0.262,0.29-0.578,0.29-0.948c0-0.625-0.282-1.052-0.846-1.277c-0.3-0.121-0.696-0.182-1.189-0.182H65.52v3.028H68.058
				L68.058,320.875z"/>
		</g>
		<g clip-path="url(#SVGID_112_)">
			<path d="M31.514,320.717v1.212c0,0.456-0.104,0.848-0.312,1.176s-0.544,0.561-1.008,0.696v-0.6
				c0.136-0.049,0.25-0.118,0.342-0.21c0.092-0.093,0.166-0.192,0.222-0.301c0.056-0.107,0.094-0.218,0.114-0.33
				c0.02-0.111,0.026-0.216,0.018-0.312h-0.708v-1.332H31.514z"/>
		</g>
	</g>
	<g>
		<defs>
			<rect id="SVGID_113_" x="9.151" y="11.871" width="422.5" height="319"/>
		</defs>
		<clipPath id="SVGID_114_">
			<use xlink:href="#SVGID_113_"  overflow="visible"/>
		</clipPath>
		
			<polyline clip-path="url(#SVGID_114_)" fill="none" stroke="#000000" stroke-width="2" stroke-linecap="round" stroke-linejoin="round" stroke-miterlimit="10" points="
			83.151,265.871 164.151,265.871 164.151,242.771 		"/>
	</g>
	<g>
		<defs>
			<rect id="SVGID_115_" x="9.151" y="11.871" width="422.5" height="319"/>
		</defs>
		<clipPath id="SVGID_116_">
			<use xlink:href="#SVGID_115_"  overflow="visible"/>
		</clipPath>
		<polygon clip-path="url(#SVGID_116_)" points="164.151,233.171 160.551,242.771 167.751,242.771 		"/>
	</g>
	<g>
		<defs>
			<rect id="SVGID_117_" x="9.151" y="11.871" width="422.5" height="319"/>
		</defs>
		<clipPath id="SVGID_118_">
			<use xlink:href="#SVGID_117_"  overflow="visible"/>
		</clipPath>
		<polygon clip-path="url(#SVGID_118_)" fill="none" stroke="#000000" stroke-width="2" stroke-miterlimit="10" points="
			164.151,233.171 160.551,242.771 167.751,242.771 		"/>
	</g>
	<g>
		<defs>
			<rect id="SVGID_119_" x="9.151" y="11.871" width="422.5" height="319"/>
		</defs>
		<clipPath id="SVGID_120_">
			<use xlink:href="#SVGID_119_"  overflow="visible"/>
		</clipPath>
		<path clip-path="url(#SVGID_120_)" fill="#FFFFFF" d="M248.302,53.246h56.699c6.707,0,12.15,6.048,12.15,13.5
			s-5.443,13.5-12.15,13.5h-56.699c-6.706,0-12.149-6.048-12.149-13.5S241.596,53.246,248.302,53.246"/>
	</g>
	<g>
		<defs>
			<rect id="SVGID_121_" x="9.151" y="11.871" width="422.5" height="319"/>
		</defs>
		<clipPath id="SVGID_122_">
			<use xlink:href="#SVGID_121_"  overflow="visible"/>
		</clipPath>
		
			<path clip-path="url(#SVGID_122_)" fill="none" stroke="#000000" stroke-linecap="round" stroke-linejoin="round" stroke-miterlimit="10" d="
			M248.302,53.371h56.699c6.707-0.125,12.15,5.923,12.15,13.375s-5.443,13.5-12.15,13.625h-56.699
			c-6.706-0.125-12.149-6.173-12.149-13.625s5.443-13.5,12.149-13.5"/>
	</g>
	<g>
		<defs>
			<rect id="SVGID_123_" x="9.151" y="11.871" width="422.5" height="319"/>
		</defs>
		<clipPath id="SVGID_124_">
			<use xlink:href="#SVGID_123_"  overflow="visible"/>
		</clipPath>
		<g clip-path="url(#SVGID_124_)">
			<path d="M257.025,62.139h3.912c0.645,0,1.176,0.096,1.595,0.286c0.793,0.367,1.19,1.046,1.19,2.033
				c0,0.517-0.106,0.938-0.32,1.267c-0.213,0.327-0.51,0.592-0.894,0.791c0.336,0.137,0.589,0.315,0.759,0.539
				c0.17,0.223,0.266,0.584,0.284,1.084l0.041,1.153c0.013,0.328,0.039,0.572,0.082,0.732c0.07,0.272,0.195,0.449,0.375,0.526v0.193
				h-1.43c-0.039-0.074-0.07-0.17-0.095-0.287c-0.023-0.117-0.043-0.344-0.059-0.68l-0.07-1.437
				c-0.025-0.562-0.229-0.938-0.607-1.131c-0.217-0.104-0.557-0.157-1.02-0.157h-2.58v3.69h-1.166v-8.604H257.025z M260.812,66.082
				c0.531,0,0.951-0.108,1.263-0.328c0.309-0.219,0.464-0.612,0.464-1.184c0-0.613-0.216-1.031-0.648-1.254
				c-0.232-0.117-0.541-0.176-0.93-0.176h-2.77v2.94L260.812,66.082L260.812,66.082z"/>
			<path d="M269.286,64.644c0.416,0.209,0.731,0.479,0.948,0.812c0.211,0.316,0.351,0.687,0.421,1.107
				c0.062,0.289,0.093,0.75,0.093,1.383h-4.564c0.021,0.639,0.17,1.15,0.448,1.536s0.711,0.579,1.296,0.579
				c0.547,0,0.982-0.184,1.309-0.548c0.183-0.212,0.312-0.457,0.388-0.735h1.037c-0.027,0.229-0.118,0.487-0.272,0.771
				c-0.154,0.284-0.326,0.516-0.517,0.694c-0.317,0.312-0.712,0.523-1.181,0.633c-0.252,0.062-0.537,0.095-0.854,0.095
				c-0.776,0-1.435-0.284-1.974-0.854c-0.54-0.568-0.811-1.364-0.811-2.388c0-1.008,0.271-1.826,0.815-2.455
				c0.543-0.629,1.254-0.943,2.131-0.943C268.441,64.33,268.871,64.435,269.286,64.644z M269.664,67.107
				c-0.042-0.457-0.143-0.822-0.296-1.097c-0.287-0.508-0.767-0.762-1.437-0.762c-0.479,0-0.883,0.175-1.209,0.524
				c-0.324,0.35-0.496,0.794-0.517,1.333L269.664,67.107L269.664,67.107z"/>
			<path d="M275.532,64.664c0.187,0.117,0.397,0.322,0.636,0.615v-3.17h1.014v8.637h-0.949v-0.873
				c-0.244,0.387-0.534,0.666-0.869,0.838c-0.334,0.172-0.719,0.258-1.149,0.258c-0.696,0-1.3-0.294-1.81-0.882
				s-0.766-1.37-0.766-2.347c0-0.914,0.232-1.706,0.697-2.376c0.466-0.67,1.13-1.005,1.993-1.005
				C274.809,64.359,275.209,64.461,275.532,64.664z M273.178,69.369c0.284,0.453,0.738,0.68,1.364,0.68
				c0.485,0,0.886-0.21,1.197-0.63c0.312-0.42,0.47-1.021,0.47-1.808c0-0.793-0.161-1.38-0.482-1.761
				c-0.324-0.382-0.723-0.571-1.195-0.571c-0.529,0-0.957,0.203-1.285,0.609c-0.329,0.405-0.493,1.004-0.493,1.793
				C272.752,68.354,272.895,68.916,273.178,69.369z"/>
			<path d="M279.812,64.471v4.166c0,0.319,0.049,0.581,0.147,0.784c0.183,0.375,0.522,0.562,1.021,0.562
				c0.715,0,1.203-0.328,1.461-0.984c0.142-0.352,0.211-0.834,0.211-1.446v-3.082h1.056v6.274h-0.996l0.013-0.926
				c-0.135,0.238-0.303,0.438-0.502,0.604c-0.395,0.328-0.873,0.492-1.437,0.492c-0.878,0-1.476-0.299-1.794-0.896
				c-0.172-0.32-0.26-0.748-0.26-1.283v-4.266H279.812z"/>
			<path d="M289.577,64.805c0.442,0.344,0.71,0.936,0.8,1.774h-1.025c-0.062-0.387-0.205-0.708-0.428-0.964s-0.58-0.384-1.072-0.384
				c-0.672,0-1.151,0.328-1.44,0.982c-0.188,0.426-0.281,0.95-0.281,1.574c0,0.628,0.134,1.156,0.397,1.586
				c0.267,0.43,0.685,0.645,1.255,0.645c0.438,0,0.784-0.134,1.04-0.399s0.433-0.632,0.529-1.095h1.025
				c-0.117,0.832-0.41,1.439-0.879,1.825c-0.469,0.385-1.068,0.576-1.799,0.576c-0.82,0-1.475-0.3-1.963-0.898
				s-0.732-1.349-0.732-2.247c0-1.102,0.268-1.959,0.803-2.572c0.535-0.612,1.217-0.92,2.045-0.92
				C288.559,64.289,289.134,64.461,289.577,64.805z"/>
			<path d="M295.309,64.644c0.416,0.209,0.731,0.479,0.948,0.812c0.21,0.316,0.351,0.687,0.421,1.107
				c0.062,0.289,0.092,0.75,0.092,1.383h-4.563c0.021,0.639,0.169,1.15,0.448,1.536c0.277,0.386,0.711,0.579,1.296,0.579
				c0.546,0,0.981-0.184,1.308-0.548c0.184-0.212,0.312-0.457,0.389-0.735h1.037c-0.027,0.229-0.119,0.487-0.272,0.771
				c-0.154,0.284-0.326,0.516-0.517,0.694c-0.317,0.312-0.713,0.523-1.182,0.633c-0.252,0.062-0.537,0.095-0.854,0.095
				c-0.776,0-1.436-0.284-1.975-0.854c-0.539-0.568-0.81-1.364-0.81-2.388c0-1.008,0.271-1.826,0.815-2.455
				c0.543-0.629,1.254-0.943,2.131-0.943C294.464,64.33,294.893,64.435,295.309,64.644z M295.686,67.107
				c-0.041-0.457-0.142-0.822-0.295-1.097c-0.287-0.508-0.767-0.762-1.437-0.762c-0.479,0-0.884,0.175-1.209,0.524
				c-0.324,0.35-0.497,0.794-0.517,1.333L295.686,67.107L295.686,67.107z"/>
		</g>
	</g>
	<g>
		<defs>
			<rect id="SVGID_125_" x="9.151" y="11.871" width="422.5" height="319"/>
		</defs>
		<clipPath id="SVGID_126_">
			<use xlink:href="#SVGID_125_"  overflow="visible"/>
		</clipPath>
		<path clip-path="url(#SVGID_126_)" fill="#FFFFFF" d="M248.302,161.246h56.699c6.707,0,12.15,6.048,12.15,13.5
			s-5.443,13.5-12.15,13.5h-56.699c-6.706,0-12.149-6.048-12.149-13.5S241.596,161.246,248.302,161.246"/>
	</g>
	<g>
		<defs>
			<rect id="SVGID_127_" x="9.151" y="11.871" width="422.5" height="319"/>
		</defs>
		<clipPath id="SVGID_128_">
			<use xlink:href="#SVGID_127_"  overflow="visible"/>
		</clipPath>
		
			<path clip-path="url(#SVGID_128_)" fill="none" stroke="#000000" stroke-linecap="round" stroke-linejoin="round" stroke-miterlimit="10" d="
			M248.302,161.371h56.699c6.707-0.125,12.15,5.923,12.15,13.375s-5.443,13.5-12.15,13.625h-56.699
			c-6.706-0.125-12.149-6.173-12.149-13.625s5.443-13.5,12.149-13.5"/>
	</g>
	<g>
		<defs>
			<rect id="SVGID_129_" x="9.151" y="11.871" width="422.5" height="319"/>
		</defs>
		<clipPath id="SVGID_130_">
			<use xlink:href="#SVGID_129_"  overflow="visible"/>
		</clipPath>
		<g clip-path="url(#SVGID_130_)">
			<path d="M257.025,170.139h3.912c0.645,0,1.176,0.096,1.595,0.286c0.793,0.367,1.19,1.046,1.19,2.033
				c0,0.517-0.106,0.938-0.32,1.267c-0.213,0.328-0.51,0.592-0.894,0.791c0.336,0.137,0.589,0.315,0.759,0.539
				c0.17,0.223,0.266,0.584,0.284,1.084l0.041,1.153c0.013,0.328,0.039,0.572,0.082,0.732c0.07,0.272,0.195,0.449,0.375,0.526v0.193
				h-1.43c-0.039-0.074-0.07-0.17-0.095-0.287c-0.023-0.117-0.043-0.344-0.059-0.68l-0.07-1.437
				c-0.025-0.562-0.229-0.938-0.607-1.131c-0.217-0.104-0.557-0.157-1.02-0.157h-2.58v3.69h-1.166v-8.604H257.025z M260.812,174.082
				c0.531,0,0.951-0.108,1.263-0.328c0.309-0.219,0.464-0.612,0.464-1.184c0-0.613-0.216-1.031-0.648-1.254
				c-0.232-0.117-0.541-0.176-0.93-0.176h-2.77v2.94L260.812,174.082L260.812,174.082z"/>
			<path d="M269.286,172.644c0.416,0.209,0.731,0.479,0.948,0.812c0.211,0.316,0.351,0.687,0.421,1.107
				c0.062,0.289,0.093,0.75,0.093,1.383h-4.564c0.021,0.639,0.17,1.15,0.448,1.536s0.711,0.579,1.296,0.579
				c0.547,0,0.982-0.184,1.309-0.548c0.183-0.212,0.312-0.457,0.388-0.735h1.037c-0.027,0.229-0.118,0.487-0.272,0.771
				c-0.154,0.284-0.326,0.516-0.517,0.694c-0.317,0.312-0.712,0.523-1.181,0.633c-0.252,0.062-0.537,0.094-0.854,0.094
				c-0.776,0-1.435-0.283-1.974-0.853c-0.54-0.568-0.811-1.364-0.811-2.388c0-1.009,0.271-1.826,0.815-2.455
				c0.543-0.629,1.254-0.943,2.131-0.943C268.441,172.33,268.871,172.435,269.286,172.644z M269.664,175.107
				c-0.042-0.457-0.143-0.822-0.296-1.097c-0.287-0.508-0.767-0.762-1.437-0.762c-0.479,0-0.883,0.175-1.209,0.524
				c-0.324,0.35-0.496,0.794-0.517,1.333L269.664,175.107L269.664,175.107z"/>
			<path d="M275.532,172.664c0.187,0.117,0.397,0.322,0.636,0.615v-3.17h1.014v8.637h-0.949v-0.873
				c-0.244,0.387-0.534,0.666-0.869,0.838c-0.334,0.172-0.719,0.258-1.149,0.258c-0.696,0-1.3-0.294-1.81-0.882
				s-0.766-1.37-0.766-2.347c0-0.914,0.232-1.706,0.697-2.376c0.466-0.67,1.13-1.005,1.993-1.005
				C274.809,172.359,275.209,172.461,275.532,172.664z M273.178,177.369c0.284,0.453,0.738,0.68,1.364,0.68
				c0.485,0,0.886-0.21,1.197-0.63c0.312-0.42,0.47-1.021,0.47-1.808c0-0.793-0.161-1.38-0.482-1.761
				c-0.324-0.382-0.723-0.571-1.195-0.571c-0.529,0-0.957,0.203-1.285,0.609c-0.329,0.405-0.493,1.004-0.493,1.793
				C272.752,176.354,272.895,176.916,273.178,177.369z"/>
			<path d="M279.812,172.471v4.166c0,0.319,0.049,0.581,0.147,0.784c0.183,0.375,0.522,0.562,1.021,0.562
				c0.715,0,1.203-0.328,1.461-0.984c0.142-0.352,0.211-0.834,0.211-1.447v-3.081h1.056v6.274h-0.996l0.013-0.926
				c-0.135,0.238-0.303,0.438-0.502,0.604c-0.395,0.328-0.873,0.492-1.437,0.492c-0.878,0-1.476-0.299-1.794-0.896
				c-0.172-0.32-0.26-0.748-0.26-1.283v-4.266H279.812z"/>
			<path d="M289.577,172.805c0.442,0.344,0.71,0.936,0.8,1.774h-1.025c-0.062-0.387-0.205-0.708-0.428-0.964
				s-0.58-0.384-1.072-0.384c-0.672,0-1.151,0.328-1.44,0.982c-0.188,0.426-0.281,0.95-0.281,1.574c0,0.628,0.134,1.156,0.397,1.586
				c0.267,0.43,0.685,0.645,1.255,0.645c0.438,0,0.784-0.134,1.04-0.399s0.433-0.632,0.529-1.095h1.025
				c-0.117,0.832-0.41,1.439-0.879,1.825c-0.469,0.385-1.068,0.576-1.799,0.576c-0.82,0-1.475-0.3-1.963-0.898
				c-0.488-0.6-0.732-1.35-0.732-2.247c0-1.103,0.268-1.959,0.803-2.572s1.217-0.92,2.045-0.92
				C288.559,172.289,289.134,172.461,289.577,172.805z"/>
			<path d="M295.309,172.644c0.416,0.209,0.731,0.479,0.948,0.812c0.21,0.316,0.351,0.687,0.421,1.107
				c0.062,0.289,0.092,0.75,0.092,1.383h-4.563c0.021,0.639,0.169,1.15,0.448,1.536c0.277,0.386,0.711,0.579,1.296,0.579
				c0.546,0,0.981-0.184,1.308-0.548c0.184-0.212,0.312-0.457,0.389-0.735h1.037c-0.027,0.229-0.119,0.487-0.272,0.771
				c-0.154,0.284-0.326,0.516-0.517,0.694c-0.317,0.312-0.713,0.523-1.182,0.633c-0.252,0.062-0.537,0.094-0.854,0.094
				c-0.776,0-1.436-0.283-1.975-0.853c-0.539-0.568-0.81-1.364-0.81-2.388c0-1.009,0.271-1.826,0.815-2.455
				c0.543-0.629,1.254-0.943,2.131-0.943C294.464,172.33,294.893,172.435,295.309,172.644z M295.686,175.107
				c-0.041-0.457-0.142-0.822-0.295-1.097c-0.287-0.508-0.767-0.762-1.437-0.762c-0.479,0-0.884,0.175-1.209,0.524
				c-0.324,0.35-0.497,0.794-0.517,1.333L295.686,175.107L295.686,175.107z"/>
		</g>
	</g>
	<g>
		<defs>
			<rect id="SVGID_131_" x="9.151" y="11.871" width="422.5" height="319"/>
		</defs>
		<clipPath id="SVGID_132_">
			<use xlink:href="#SVGID_131_"  overflow="visible"/>
		</clipPath>
		<path clip-path="url(#SVGID_132_)" fill="#FFFFFF" d="M360.802,107.246h56.699c6.707,0,12.15,6.048,12.15,13.5
			s-5.443,13.5-12.15,13.5h-56.699c-6.707,0-12.149-6.048-12.149-13.5S354.095,107.246,360.802,107.246"/>
	</g>
	<g>
		<defs>
			<rect id="SVGID_133_" x="9.151" y="11.871" width="422.5" height="319"/>
		</defs>
		<clipPath id="SVGID_134_">
			<use xlink:href="#SVGID_133_"  overflow="visible"/>
		</clipPath>
		
			<path clip-path="url(#SVGID_134_)" fill="none" stroke="#000000" stroke-linecap="round" stroke-linejoin="round" stroke-miterlimit="10" d="
			M360.802,107.371h56.699c6.707-0.125,12.15,5.923,12.15,13.375s-5.443,13.5-12.15,13.625h-56.699
			c-6.707-0.125-12.149-6.173-12.149-13.625s5.442-13.5,12.149-13.5"/>
	</g>
	<g>
		<defs>
			<rect id="SVGID_135_" x="9.151" y="11.871" width="422.5" height="319"/>
		</defs>
		<clipPath id="SVGID_136_">
			<use xlink:href="#SVGID_135_"  overflow="visible"/>
		</clipPath>
		<g clip-path="url(#SVGID_136_)">
			<path d="M369.525,116.139h3.912c0.645,0,1.176,0.096,1.595,0.286c0.793,0.367,1.189,1.046,1.189,2.033
				c0,0.517-0.105,0.938-0.318,1.267c-0.213,0.327-0.512,0.592-0.895,0.791c0.336,0.137,0.589,0.315,0.759,0.539
				c0.17,0.223,0.266,0.584,0.284,1.084l0.041,1.153c0.012,0.328,0.039,0.572,0.082,0.732c0.07,0.272,0.195,0.449,0.375,0.526v0.193
				h-1.43c-0.039-0.074-0.07-0.17-0.094-0.287c-0.024-0.117-0.043-0.344-0.06-0.68l-0.07-1.437
				c-0.025-0.562-0.229-0.938-0.607-1.131c-0.217-0.104-0.557-0.157-1.021-0.157h-2.578v3.69h-1.166L369.525,116.139
				L369.525,116.139z M373.312,120.082c0.531,0,0.951-0.108,1.263-0.328c0.309-0.219,0.464-0.612,0.464-1.184
				c0-0.613-0.216-1.031-0.649-1.254c-0.231-0.117-0.541-0.176-0.929-0.176h-2.77v2.94L373.312,120.082L373.312,120.082z"/>
			<path d="M381.786,118.644c0.416,0.209,0.731,0.479,0.949,0.812c0.21,0.316,0.35,0.687,0.42,1.107
				c0.062,0.289,0.093,0.75,0.093,1.383h-4.564c0.021,0.639,0.17,1.15,0.448,1.536s0.711,0.579,1.296,0.579
				c0.546,0,0.982-0.184,1.309-0.548c0.183-0.212,0.312-0.457,0.388-0.735h1.037c-0.027,0.229-0.118,0.487-0.272,0.771
				c-0.153,0.284-0.325,0.516-0.517,0.694c-0.317,0.312-0.712,0.523-1.181,0.633c-0.252,0.062-0.537,0.095-0.854,0.095
				c-0.776,0-1.435-0.284-1.974-0.854c-0.54-0.568-0.811-1.364-0.811-2.388c0-1.008,0.271-1.826,0.815-2.455
				c0.543-0.629,1.254-0.943,2.131-0.943C380.942,118.33,381.371,118.435,381.786,118.644z M382.164,121.107
				c-0.042-0.457-0.142-0.822-0.296-1.097c-0.287-0.508-0.767-0.762-1.437-0.762c-0.479,0-0.883,0.175-1.209,0.524
				c-0.323,0.35-0.497,0.794-0.517,1.333L382.164,121.107L382.164,121.107z"/>
			<path d="M388.032,118.664c0.187,0.117,0.397,0.322,0.636,0.615v-3.17h1.014v8.637h-0.948v-0.873
				c-0.245,0.387-0.535,0.666-0.87,0.838c-0.334,0.172-0.719,0.258-1.149,0.258c-0.696,0-1.3-0.294-1.81-0.882
				c-0.511-0.588-0.766-1.37-0.766-2.347c0-0.914,0.232-1.706,0.697-2.376c0.466-0.67,1.13-1.005,1.993-1.005
				C387.308,118.359,387.709,118.461,388.032,118.664z M385.678,123.369c0.284,0.453,0.738,0.68,1.364,0.68
				c0.485,0,0.885-0.21,1.197-0.63s0.47-1.021,0.47-1.808c0-0.793-0.161-1.38-0.483-1.761c-0.322-0.382-0.722-0.571-1.194-0.571
				c-0.529,0-0.957,0.203-1.285,0.609c-0.329,0.405-0.493,1.004-0.493,1.793C385.252,122.354,385.394,122.916,385.678,123.369z"/>
			<path d="M392.312,118.471v4.166c0,0.319,0.05,0.581,0.147,0.784c0.183,0.375,0.522,0.562,1.021,0.562
				c0.715,0,1.201-0.328,1.461-0.984c0.141-0.352,0.211-0.834,0.211-1.446v-3.082h1.055v6.274h-0.996l0.012-0.926
				c-0.134,0.238-0.302,0.438-0.501,0.604c-0.395,0.328-0.873,0.492-1.437,0.492c-0.878,0-1.477-0.299-1.794-0.896
				c-0.172-0.32-0.259-0.748-0.259-1.283v-4.266H392.312z"/>
			<path d="M402.077,118.805c0.442,0.344,0.71,0.936,0.8,1.774h-1.025c-0.062-0.387-0.204-0.708-0.428-0.964
				c-0.223-0.256-0.58-0.384-1.072-0.384c-0.672,0-1.151,0.328-1.44,0.982c-0.188,0.426-0.281,0.95-0.281,1.574
				c0,0.628,0.133,1.156,0.398,1.586s0.684,0.645,1.254,0.645c0.438,0,0.784-0.134,1.04-0.399s0.433-0.632,0.529-1.095h1.025
				c-0.117,0.832-0.41,1.439-0.879,1.825c-0.469,0.385-1.068,0.576-1.799,0.576c-0.82,0-1.476-0.3-1.963-0.898
				c-0.488-0.599-0.732-1.349-0.732-2.247c0-1.102,0.268-1.959,0.803-2.572c0.535-0.612,1.218-0.92,2.045-0.92
				C401.059,118.289,401.634,118.461,402.077,118.805z"/>
			<path d="M407.808,118.644c0.416,0.209,0.732,0.479,0.949,0.812c0.21,0.316,0.351,0.687,0.42,1.107
				c0.062,0.289,0.093,0.75,0.093,1.383h-4.563c0.02,0.639,0.169,1.15,0.448,1.536c0.277,0.386,0.711,0.579,1.296,0.579
				c0.546,0,0.981-0.184,1.308-0.548c0.184-0.212,0.312-0.457,0.389-0.735h1.036c-0.026,0.229-0.117,0.487-0.271,0.771
				c-0.154,0.284-0.326,0.516-0.518,0.694c-0.316,0.312-0.712,0.523-1.181,0.633c-0.252,0.062-0.537,0.095-0.854,0.095
				c-0.776,0-1.436-0.284-1.975-0.854c-0.54-0.568-0.81-1.364-0.81-2.388c0-1.008,0.271-1.826,0.814-2.455
				c0.543-0.629,1.254-0.943,2.132-0.943C406.964,118.33,407.393,118.435,407.808,118.644z M408.186,121.107
				c-0.042-0.457-0.142-0.822-0.296-1.097c-0.286-0.508-0.766-0.762-1.436-0.762c-0.48,0-0.883,0.175-1.209,0.524
				c-0.324,0.35-0.497,0.794-0.518,1.333L408.186,121.107L408.186,121.107z"/>
		</g>
	</g>
	<g>
		<defs>
			<rect id="SVGID_137_" x="9.151" y="11.871" width="422.5" height="319"/>
		</defs>
		<clipPath id="SVGID_138_">
			<use xlink:href="#SVGID_137_"  overflow="visible"/>
		</clipPath>
		
			<line clip-path="url(#SVGID_138_)" fill="none" stroke="#000000" stroke-width="2" stroke-linecap="round" stroke-linejoin="round" stroke-miterlimit="10" x1="189.208" y1="36.141" x2="230.419" y2="50.565"/>
	</g>
	<g>
		<defs>
			<rect id="SVGID_139_" x="9.151" y="11.871" width="422.5" height="319"/>
		</defs>
		<clipPath id="SVGID_140_">
			<use xlink:href="#SVGID_139_"  overflow="visible"/>
		</clipPath>
		<polygon clip-path="url(#SVGID_140_)" points="239.48,53.736 231.607,47.167 229.229,53.963 		"/>
	</g>
	<g>
		<defs>
			<rect id="SVGID_141_" x="9.151" y="11.871" width="422.5" height="319"/>
		</defs>
		<clipPath id="SVGID_142_">
			<use xlink:href="#SVGID_141_"  overflow="visible"/>
		</clipPath>
		<polygon clip-path="url(#SVGID_142_)" fill="none" stroke="#000000" stroke-width="2" stroke-miterlimit="10" points="
			239.48,53.736 231.607,47.167 229.229,53.963 		"/>
	</g>
	<g>
		<defs>
			<rect id="SVGID_143_" x="9.151" y="11.871" width="422.5" height="319"/>
		</defs>
		<clipPath id="SVGID_144_">
			<use xlink:href="#SVGID_143_"  overflow="visible"/>
		</clipPath>
		
			<line clip-path="url(#SVGID_144_)" fill="none" stroke="#000000" stroke-width="2" stroke-linecap="round" stroke-linejoin="round" stroke-miterlimit="10" x1="190.957" y1="57.32" x2="223.984" y2="60.953"/>
	</g>
	<g>
		<defs>
			<rect id="SVGID_145_" x="9.151" y="11.871" width="422.5" height="319"/>
		</defs>
		<clipPath id="SVGID_146_">
			<use xlink:href="#SVGID_145_"  overflow="visible"/>
		</clipPath>
		<polygon clip-path="url(#SVGID_146_)" points="233.525,62.002 224.378,57.375 223.591,64.531 		"/>
	</g>
	<g>
		<defs>
			<rect id="SVGID_147_" x="9.151" y="11.871" width="422.5" height="319"/>
		</defs>
		<clipPath id="SVGID_148_">
			<use xlink:href="#SVGID_147_"  overflow="visible"/>
		</clipPath>
		<polygon clip-path="url(#SVGID_148_)" fill="none" stroke="#000000" stroke-width="2" stroke-miterlimit="10" points="
			233.525,62.002 224.378,57.375 223.591,64.531 		"/>
	</g>
	<g>
		<defs>
			<rect id="SVGID_149_" x="9.151" y="11.871" width="422.5" height="319"/>
		</defs>
		<clipPath id="SVGID_150_">
			<use xlink:href="#SVGID_149_"  overflow="visible"/>
		</clipPath>
		
			<line clip-path="url(#SVGID_150_)" fill="none" stroke="#000000" stroke-width="2" stroke-linecap="round" stroke-linejoin="round" stroke-miterlimit="10" x1="190.88" y1="77.896" x2="224.273" y2="73.555"/>
	</g>
	<g>
		<defs>
			<rect id="SVGID_151_" x="9.151" y="11.871" width="422.5" height="319"/>
		</defs>
		<clipPath id="SVGID_152_">
			<use xlink:href="#SVGID_151_"  overflow="visible"/>
		</clipPath>
		<polygon clip-path="url(#SVGID_152_)" points="233.794,72.317 223.811,69.985 224.738,77.125 		"/>
	</g>
	<g>
		<defs>
			<rect id="SVGID_153_" x="9.151" y="11.871" width="422.5" height="319"/>
		</defs>
		<clipPath id="SVGID_154_">
			<use xlink:href="#SVGID_153_"  overflow="visible"/>
		</clipPath>
		<polygon clip-path="url(#SVGID_154_)" fill="none" stroke="#000000" stroke-width="2" stroke-miterlimit="10" points="
			233.794,72.317 223.811,69.985 224.738,77.125 		"/>
	</g>
	<g>
		<defs>
			<rect id="SVGID_155_" x="9.151" y="11.871" width="422.5" height="319"/>
		</defs>
		<clipPath id="SVGID_156_">
			<use xlink:href="#SVGID_155_"  overflow="visible"/>
		</clipPath>
		
			<line clip-path="url(#SVGID_156_)" fill="none" stroke="#000000" stroke-width="2" stroke-linecap="round" stroke-linejoin="round" stroke-miterlimit="10" x1="188.984" y1="99.183" x2="231.241" y2="83.548"/>
	</g>
	<g>
		<defs>
			<rect id="SVGID_157_" x="9.151" y="11.871" width="422.5" height="319"/>
		</defs>
		<clipPath id="SVGID_158_">
			<use xlink:href="#SVGID_157_"  overflow="visible"/>
		</clipPath>
		<polygon clip-path="url(#SVGID_158_)" points="240.245,80.217 229.992,80.171 232.49,86.924 		"/>
	</g>
	<g>
		<defs>
			<rect id="SVGID_159_" x="9.151" y="11.871" width="422.5" height="319"/>
		</defs>
		<clipPath id="SVGID_160_">
			<use xlink:href="#SVGID_159_"  overflow="visible"/>
		</clipPath>
		<polygon clip-path="url(#SVGID_160_)" fill="none" stroke="#000000" stroke-width="2" stroke-miterlimit="10" points="
			240.245,80.217 229.992,80.171 232.49,86.924 		"/>
	</g>
	<g>
		<defs>
			<rect id="SVGID_161_" x="9.151" y="11.871" width="422.5" height="319"/>
		</defs>
		<clipPath id="SVGID_162_">
			<use xlink:href="#SVGID_161_"  overflow="visible"/>
		</clipPath>
		
			<line clip-path="url(#SVGID_162_)" fill="none" stroke="#000000" stroke-width="2" stroke-linecap="round" stroke-linejoin="round" stroke-miterlimit="10" x1="189.208" y1="144.141" x2="230.419" y2="158.564"/>
	</g>
	<g>
		<defs>
			<rect id="SVGID_163_" x="9.151" y="11.871" width="422.5" height="319"/>
		</defs>
		<clipPath id="SVGID_164_">
			<use xlink:href="#SVGID_163_"  overflow="visible"/>
		</clipPath>
		<polygon clip-path="url(#SVGID_164_)" points="239.48,161.736 231.607,155.167 229.229,161.963 		"/>
	</g>
	<g>
		<defs>
			<rect id="SVGID_165_" x="9.151" y="11.871" width="422.5" height="319"/>
		</defs>
		<clipPath id="SVGID_166_">
			<use xlink:href="#SVGID_165_"  overflow="visible"/>
		</clipPath>
		<polygon clip-path="url(#SVGID_166_)" fill="none" stroke="#000000" stroke-width="2" stroke-miterlimit="10" points="
			239.48,161.736 231.607,155.167 229.229,161.963 		"/>
	</g>
	<g>
		<defs>
			<rect id="SVGID_167_" x="9.151" y="11.871" width="422.5" height="319"/>
		</defs>
		<clipPath id="SVGID_168_">
			<use xlink:href="#SVGID_167_"  overflow="visible"/>
		</clipPath>
		
			<line clip-path="url(#SVGID_168_)" fill="none" stroke="#000000" stroke-width="2" stroke-linecap="round" stroke-linejoin="round" stroke-miterlimit="10" x1="190.957" y1="165.319" x2="223.984" y2="168.953"/>
	</g>
	<g>
		<defs>
			<rect id="SVGID_169_" x="9.151" y="11.871" width="422.5" height="319"/>
		</defs>
		<clipPath id="SVGID_170_">
			<use xlink:href="#SVGID_169_"  overflow="visible"/>
		</clipPath>
		<polygon clip-path="url(#SVGID_170_)" points="233.525,170.002 224.378,165.374 223.591,172.531 		"/>
	</g>
	<g>
		<defs>
			<rect id="SVGID_171_" x="9.151" y="11.871" width="422.5" height="319"/>
		</defs>
		<clipPath id="SVGID_172_">
			<use xlink:href="#SVGID_171_"  overflow="visible"/>
		</clipPath>
		<polygon clip-path="url(#SVGID_172_)" fill="none" stroke="#000000" stroke-width="2" stroke-miterlimit="10" points="
			233.525,170.002 224.378,165.374 223.591,172.531 		"/>
	</g>
	<g>
		<defs>
			<rect id="SVGID_173_" x="9.151" y="11.871" width="422.5" height="319"/>
		</defs>
		<clipPath id="SVGID_174_">
			<use xlink:href="#SVGID_173_"  overflow="visible"/>
		</clipPath>
		
			<line clip-path="url(#SVGID_174_)" fill="none" stroke="#000000" stroke-width="2" stroke-linecap="round" stroke-linejoin="round" stroke-miterlimit="10" x1="190.88" y1="185.896" x2="224.273" y2="181.556"/>
	</g>
	<g>
		<defs>
			<rect id="SVGID_175_" x="9.151" y="11.871" width="422.5" height="319"/>
		</defs>
		<clipPath id="SVGID_176_">
			<use xlink:href="#SVGID_175_"  overflow="visible"/>
		</clipPath>
		<polygon clip-path="url(#SVGID_176_)" points="233.794,180.317 223.811,177.985 224.738,185.125 		"/>
	</g>
	<g>
		<defs>
			<rect id="SVGID_177_" x="9.151" y="11.871" width="422.5" height="319"/>
		</defs>
		<clipPath id="SVGID_178_">
			<use xlink:href="#SVGID_177_"  overflow="visible"/>
		</clipPath>
		<polygon clip-path="url(#SVGID_178_)" fill="none" stroke="#000000" stroke-width="2" stroke-miterlimit="10" points="
			233.794,180.317 223.811,177.985 224.738,185.125 		"/>
	</g>
	<g>
		<defs>
			<rect id="SVGID_179_" x="9.151" y="11.871" width="422.5" height="319"/>
		</defs>
		<clipPath id="SVGID_180_">
			<use xlink:href="#SVGID_179_"  overflow="visible"/>
		</clipPath>
		
			<line clip-path="url(#SVGID_180_)" fill="none" stroke="#000000" stroke-width="2" stroke-linecap="round" stroke-linejoin="round" stroke-miterlimit="10" x1="188.984" y1="207.183" x2="231.241" y2="191.548"/>
	</g>
	<g>
		<defs>
			<rect id="SVGID_181_" x="9.151" y="11.871" width="422.5" height="319"/>
		</defs>
		<clipPath id="SVGID_182_">
			<use xlink:href="#SVGID_181_"  overflow="visible"/>
		</clipPath>
		<polygon clip-path="url(#SVGID_182_)" points="240.245,188.217 229.992,188.172 232.49,194.924 		"/>
	</g>
	<g>
		<defs>
			<rect id="SVGID_183_" x="9.151" y="11.871" width="422.5" height="319"/>
		</defs>
		<clipPath id="SVGID_184_">
			<use xlink:href="#SVGID_183_"  overflow="visible"/>
		</clipPath>
		<polygon clip-path="url(#SVGID_184_)" fill="none" stroke="#000000" stroke-width="2" stroke-miterlimit="10" points="
			240.245,188.217 229.992,188.172 232.49,194.924 		"/>
	</g>
	<g>
		<defs>
			<rect id="SVGID_185_" x="9.151" y="11.871" width="422.5" height="319"/>
		</defs>
		<clipPath id="SVGID_186_">
			<use xlink:href="#SVGID_185_"  overflow="visible"/>
		</clipPath>
		
			<line clip-path="url(#SVGID_186_)" fill="none" stroke="#000000" stroke-width="2" stroke-linecap="round" stroke-linejoin="round" stroke-miterlimit="10" x1="304.775" y1="80.246" x2="349.396" y2="101.664"/>
	</g>
	<g>
		<defs>
			<rect id="SVGID_187_" x="9.151" y="11.871" width="422.5" height="319"/>
		</defs>
		<clipPath id="SVGID_188_">
			<use xlink:href="#SVGID_187_"  overflow="visible"/>
		</clipPath>
		<polygon clip-path="url(#SVGID_188_)" points="358.052,105.818 350.954,98.418 347.839,104.909 		"/>
	</g>
	<g>
		<defs>
			<rect id="SVGID_189_" x="9.151" y="11.871" width="422.5" height="319"/>
		</defs>
		<clipPath id="SVGID_190_">
			<use xlink:href="#SVGID_189_"  overflow="visible"/>
		</clipPath>
		<polygon clip-path="url(#SVGID_190_)" fill="none" stroke="#000000" stroke-width="2" stroke-miterlimit="10" points="
			358.052,105.818 350.954,98.418 347.839,104.909 		"/>
	</g>
	<g>
		<defs>
			<rect id="SVGID_191_" x="9.151" y="11.871" width="422.5" height="319"/>
		</defs>
		<clipPath id="SVGID_192_">
			<use xlink:href="#SVGID_191_"  overflow="visible"/>
		</clipPath>
		
			<line clip-path="url(#SVGID_192_)" fill="none" stroke="#000000" stroke-width="2" stroke-linecap="round" stroke-linejoin="round" stroke-miterlimit="10" x1="304.775" y1="161.246" x2="349.396" y2="139.828"/>
	</g>
	<g>
		<defs>
			<rect id="SVGID_193_" x="9.151" y="11.871" width="422.5" height="319"/>
		</defs>
		<clipPath id="SVGID_194_">
			<use xlink:href="#SVGID_193_"  overflow="visible"/>
		</clipPath>
		<polygon clip-path="url(#SVGID_194_)" points="358.052,135.674 347.839,136.583 350.954,143.074 		"/>
	</g>
	<g>
		<defs>
			<rect id="SVGID_195_" x="9.151" y="11.871" width="422.5" height="319"/>
		</defs>
		<clipPath id="SVGID_196_">
			<use xlink:href="#SVGID_195_"  overflow="visible"/>
		</clipPath>
		<polygon clip-path="url(#SVGID_196_)" fill="none" stroke="#000000" stroke-width="2" stroke-miterlimit="10" points="
			358.052,135.674 347.839,136.583 350.954,143.074 		"/>
	</g>
	<g>
		<defs>
			<rect id="SVGID_197_" x="9.151" y="11.871" width="422.5" height="319"/>
		</defs>
		<clipPath id="SVGID_198_">
			<use xlink:href="#SVGID_197_"  overflow="visible"/>
		</clipPath>
		
			<polyline clip-path="url(#SVGID_198_)" fill="none" stroke="#000000" stroke-width="2" stroke-linecap="round" stroke-linejoin="round" stroke-miterlimit="10" points="
			83.151,310.871 275.943,310.871 276.514,201.146 		"/>
	</g>
	<g>
		<defs>
			<rect id="SVGID_199_" x="9.151" y="11.871" width="422.5" height="319"/>
		</defs>
		<clipPath id="SVGID_200_">
			<use xlink:href="#SVGID_199_"  overflow="visible"/>
		</clipPath>
		<polygon clip-path="url(#SVGID_200_)" points="276.562,191.546 272.914,201.127 280.114,201.165 		"/>
	</g>
	<g>
		<defs>
			<rect id="SVGID_201_" x="9.151" y="11.871" width="422.5" height="319"/>
		</defs>
		<clipPath id="SVGID_202_">
			<use xlink:href="#SVGID_201_"  overflow="visible"/>
		</clipPath>
		<polygon clip-path="url(#SVGID_202_)" fill="none" stroke="#000000" stroke-width="2" stroke-miterlimit="10" points="
			276.562,191.546 272.914,201.127 280.114,201.165 		"/>
	</g>
	<g>
		<defs>
			<rect id="SVGID_203_" x="9.151" y="11.871" width="422.5" height="319"/>
		</defs>
		<clipPath id="SVGID_204_">
			<use xlink:href="#SVGID_203_"  overflow="visible"/>
		</clipPath>
		
			<line clip-path="url(#SVGID_204_)" fill="none" stroke="#000000" stroke-width="2" stroke-linecap="round" stroke-linejoin="round" stroke-miterlimit="10" x1="83.151" y1="27.871" x2="124.251" y2="27.871"/>
	</g>
	<g>
		<defs>
			<rect id="SVGID_205_" x="9.151" y="11.871" width="422.5" height="319"/>
		</defs>
		<clipPath id="SVGID_206_">
			<use xlink:href="#SVGID_205_"  overflow="visible"/>
		</clipPath>
		<polygon clip-path="url(#SVGID_206_)" points="133.852,27.371 124.251,23.771 124.251,30.971 		"/>
	</g>
	<g>
		<defs>
			<rect id="SVGID_207_" x="9.151" y="11.871" width="422.5" height="319"/>
		</defs>
		<clipPath id="SVGID_208_">
			<use xlink:href="#SVGID_207_"  overflow="visible"/>
		</clipPath>
		<polygon clip-path="url(#SVGID_208_)" fill="none" stroke="#000000" stroke-width="2" stroke-miterlimit="10" points="
			133.852,27.371 124.251,23.771 124.251,30.971 		"/>
	</g>
	<g>
		<defs>
			<rect id="SVGID_209_" x="9.151" y="11.871" width="422.5" height="319"/>
		</defs>
		<clipPath id="SVGID_210_">
			<use xlink:href="#SVGID_209_"  overflow="visible"/>
		</clipPath>
		
			<line clip-path="url(#SVGID_210_)" fill="none" stroke="#000000" stroke-width="2" stroke-linecap="round" stroke-linejoin="round" stroke-miterlimit="10" x1="83.151" y1="54.871" x2="124.251" y2="54.871"/>
	</g>
	<g>
		<defs>
			<rect id="SVGID_211_" x="9.151" y="11.871" width="422.5" height="319"/>
		</defs>
		<clipPath id="SVGID_212_">
			<use xlink:href="#SVGID_211_"  overflow="visible"/>
		</clipPath>
		<polygon clip-path="url(#SVGID_212_)" points="133.852,54.371 124.251,50.771 124.251,57.971 		"/>
	</g>
	<g>
		<defs>
			<rect id="SVGID_213_" x="9.151" y="11.871" width="422.5" height="319"/>
		</defs>
		<clipPath id="SVGID_214_">
			<use xlink:href="#SVGID_213_"  overflow="visible"/>
		</clipPath>
		<polygon clip-path="url(#SVGID_214_)" fill="none" stroke="#000000" stroke-width="2" stroke-miterlimit="10" points="
			133.852,54.371 124.251,50.771 124.251,57.971 		"/>
	</g>
	<g>
		<defs>
			<rect id="SVGID_215_" x="9.151" y="11.871" width="422.5" height="319"/>
		</defs>
		<clipPath id="SVGID_216_">
			<use xlink:href="#SVGID_215_"  overflow="visible"/>
		</clipPath>
		
			<line clip-path="url(#SVGID_216_)" fill="none" stroke="#000000" stroke-width="2" stroke-linecap="round" stroke-linejoin="round" stroke-miterlimit="10" x1="83.151" y1="81.871" x2="124.251" y2="81.871"/>
	</g>
	<g>
		<defs>
			<rect id="SVGID_217_" x="9.151" y="11.871" width="422.5" height="319"/>
		</defs>
		<clipPath id="SVGID_218_">
			<use xlink:href="#SVGID_217_"  overflow="visible"/>
		</clipPath>
		<polygon clip-path="url(#SVGID_218_)" points="133.852,81.371 124.251,77.771 124.251,84.971 		"/>
	</g>
	<g>
		<defs>
			<rect id="SVGID_219_" x="9.151" y="11.871" width="422.5" height="319"/>
		</defs>
		<clipPath id="SVGID_220_">
			<use xlink:href="#SVGID_219_"  overflow="visible"/>
		</clipPath>
		<polygon clip-path="url(#SVGID_220_)" fill="none" stroke="#000000" stroke-width="2" stroke-miterlimit="10" points="
			133.852,81.371 124.251,77.771 124.251,84.971 		"/>
	</g>
	<g>
		<defs>
			<rect id="SVGID_221_" x="9.151" y="11.871" width="422.5" height="319"/>
		</defs>
		<clipPath id="SVGID_222_">
			<use xlink:href="#SVGID_221_"  overflow="visible"/>
		</clipPath>
		
			<line clip-path="url(#SVGID_222_)" fill="none" stroke="#000000" stroke-width="2" stroke-linecap="round" stroke-linejoin="round" stroke-miterlimit="10" x1="83.151" y1="108.871" x2="124.251" y2="108.871"/>
	</g>
	<g>
		<defs>
			<rect id="SVGID_223_" x="9.151" y="11.871" width="422.5" height="319"/>
		</defs>
		<clipPath id="SVGID_224_">
			<use xlink:href="#SVGID_223_"  overflow="visible"/>
		</clipPath>
		<polygon clip-path="url(#SVGID_224_)" points="133.852,108.371 124.251,104.771 124.251,111.971 		"/>
	</g>
	<g>
		<defs>
			<rect id="SVGID_225_" x="9.151" y="11.871" width="422.5" height="319"/>
		</defs>
		<clipPath id="SVGID_226_">
			<use xlink:href="#SVGID_225_"  overflow="visible"/>
		</clipPath>
		<polygon clip-path="url(#SVGID_226_)" fill="none" stroke="#000000" stroke-width="2" stroke-miterlimit="10" points="
			133.852,108.371 124.251,104.771 124.251,111.971 		"/>
	</g>
	<g>
		<defs>
			<rect id="SVGID_227_" x="9.151" y="11.871" width="422.5" height="319"/>
		</defs>
		<clipPath id="SVGID_228_">
			<use xlink:href="#SVGID_227_"  overflow="visible"/>
		</clipPath>
		
			<line clip-path="url(#SVGID_228_)" fill="none" stroke="#000000" stroke-width="2" stroke-linecap="round" stroke-linejoin="round" stroke-miterlimit="10" x1="83.151" y1="135.871" x2="124.251" y2="135.871"/>
	</g>
	<g>
		<defs>
			<rect id="SVGID_229_" x="9.151" y="11.871" width="422.5" height="319"/>
		</defs>
		<clipPath id="SVGID_230_">
			<use xlink:href="#SVGID_229_"  overflow="visible"/>
		</clipPath>
		<polygon clip-path="url(#SVGID_230_)" points="133.852,135.371 124.251,131.771 124.251,138.971 		"/>
	</g>
	<g>
		<defs>
			<rect id="SVGID_231_" x="9.151" y="11.871" width="422.5" height="319"/>
		</defs>
		<clipPath id="SVGID_232_">
			<use xlink:href="#SVGID_231_"  overflow="visible"/>
		</clipPath>
		<polygon clip-path="url(#SVGID_232_)" fill="none" stroke="#000000" stroke-width="2" stroke-miterlimit="10" points="
			133.852,135.371 124.251,131.771 124.251,138.971 		"/>
	</g>
	<g>
		<defs>
			<rect id="SVGID_233_" x="9.151" y="11.871" width="422.5" height="319"/>
		</defs>
		<clipPath id="SVGID_234_">
			<use xlink:href="#SVGID_233_"  overflow="visible"/>
		</clipPath>
		
			<line clip-path="url(#SVGID_234_)" fill="none" stroke="#000000" stroke-width="2" stroke-linecap="round" stroke-linejoin="round" stroke-miterlimit="10" x1="83.151" y1="162.871" x2="124.251" y2="162.871"/>
	</g>
	<g>
		<defs>
			<rect id="SVGID_235_" x="9.151" y="11.871" width="422.5" height="319"/>
		</defs>
		<clipPath id="SVGID_236_">
			<use xlink:href="#SVGID_235_"  overflow="visible"/>
		</clipPath>
		<polygon clip-path="url(#SVGID_236_)" points="133.852,162.371 124.251,158.771 124.251,165.971 		"/>
	</g>
	<g>
		<defs>
			<rect id="SVGID_237_" x="9.151" y="11.871" width="422.5" height="319"/>
		</defs>
		<clipPath id="SVGID_238_">
			<use xlink:href="#SVGID_237_"  overflow="visible"/>
		</clipPath>
		<polygon clip-path="url(#SVGID_238_)" fill="none" stroke="#000000" stroke-width="2" stroke-miterlimit="10" points="
			133.852,162.371 124.251,158.771 124.251,165.971 		"/>
	</g>
	<g>
		<defs>
			<rect id="SVGID_239_" x="9.151" y="11.871" width="422.5" height="319"/>
		</defs>
		<clipPath id="SVGID_240_">
			<use xlink:href="#SVGID_239_"  overflow="visible"/>
		</clipPath>
		
			<line clip-path="url(#SVGID_240_)" fill="none" stroke="#000000" stroke-width="2" stroke-linecap="round" stroke-linejoin="round" stroke-miterlimit="10" x1="83.151" y1="189.871" x2="124.251" y2="189.871"/>
	</g>
	<g>
		<defs>
			<rect id="SVGID_241_" x="9.151" y="11.871" width="422.5" height="319"/>
		</defs>
		<clipPath id="SVGID_242_">
			<use xlink:href="#SVGID_241_"  overflow="visible"/>
		</clipPath>
		<polygon clip-path="url(#SVGID_242_)" points="133.852,189.371 124.251,185.771 124.251,192.971 		"/>
	</g>
	<g>
		<defs>
			<rect id="SVGID_243_" x="9.151" y="11.871" width="422.5" height="319"/>
		</defs>
		<clipPath id="SVGID_244_">
			<use xlink:href="#SVGID_243_"  overflow="visible"/>
		</clipPath>
		<polygon clip-path="url(#SVGID_244_)" fill="none" stroke="#000000" stroke-width="2" stroke-miterlimit="10" points="
			133.852,189.371 124.251,185.771 124.251,192.971 		"/>
	</g>
	<g>
		<defs>
			<rect id="SVGID_245_" x="9.151" y="11.871" width="422.5" height="319"/>
		</defs>
		<clipPath id="SVGID_246_">
			<use xlink:href="#SVGID_245_"  overflow="visible"/>
		</clipPath>
		
			<line clip-path="url(#SVGID_246_)" fill="none" stroke="#000000" stroke-width="2" stroke-linecap="round" stroke-linejoin="round" stroke-miterlimit="10" x1="83.151" y1="216.871" x2="124.251" y2="216.871"/>
	</g>
	<g>
		<defs>
			<rect id="SVGID_247_" x="9.151" y="11.871" width="422.5" height="319"/>
		</defs>
		<clipPath id="SVGID_248_">
			<use xlink:href="#SVGID_247_"  overflow="visible"/>
		</clipPath>
		<polygon clip-path="url(#SVGID_248_)" points="133.852,216.371 124.251,212.771 124.251,219.971 		"/>
	</g>
	<g>
		<defs>
			<rect id="SVGID_249_" x="9.151" y="11.871" width="422.5" height="319"/>
		</defs>
		<clipPath id="SVGID_250_">
			<use xlink:href="#SVGID_249_"  overflow="visible"/>
		</clipPath>
		<polygon clip-path="url(#SVGID_250_)" fill="none" stroke="#000000" stroke-width="2" stroke-miterlimit="10" points="
			133.852,216.371 124.251,212.771 124.251,219.971 		"/>
	</g>
</g>
</svg>
